  0
SECTION
  2
HEADER
  9
$ACADVER
  1
AC1009
  9
$FILLMODE
 70
 0
  9
$SPLFRAME
 70
 1
  9
$EXTMIN
 10
0
 20
0
 30
0.0
  9
$EXTMAX
 10
1058.33
 20
1058.33
 30
0.0
  0
ENDSEC
  0
SECTION
  2
TABLES
  0
TABLE
  2
LAYER
 70
1
  0
LAYER
  2
0
 70
     0
 62
     7
  6
CONTINUOUS
  0
ENDTAB
  0
ENDSEC
  0
SECTION
  2
ENTITIES
  0
LINE
  8
0
 62
     0
 10
146.497
 20
95.5075
 30
0.0
 11
146.967
 21
95.4899
 31
0.0
  0
LINE
  8
0
 62
     0
 10
146.967
 20
95.4899
 30
0.0
 11
147.435
 21
95.4345
 31
0.0
  0
LINE
  8
0
 62
     0
 10
147.435
 20
95.4345
 30
0.0
 11
147.896
 21
95.3424
 31
0.0
  0
LINE
  8
0
 62
     0
 10
147.896
 20
95.3424
 30
0.0
 11
148.35
 21
95.214
 31
0.0
  0
LINE
  8
0
 62
     0
 10
148.35
 20
95.214
 30
0.0
 11
148.792
 21
95.0517
 31
0.0
  0
LINE
  8
0
 62
     0
 10
148.792
 20
95.0517
 30
0.0
 11
149.219
 21
94.8545
 31
0.0
  0
LINE
  8
0
 62
     0
 10
149.219
 20
94.8545
 30
0.0
 11
149.63
 21
94.6231
 31
0.0
  0
LINE
  8
0
 62
     0
 10
149.63
 20
94.6231
 30
0.0
 11
150.023
 21
94.3624
 31
0.0
  0
LINE
  8
0
 62
     0
 10
150.023
 20
94.3624
 30
0.0
 11
150.392
 21
94.0703
 31
0.0
  0
LINE
  8
0
 62
     0
 10
150.392
 20
94.0703
 30
0.0
 11
150.738
 21
93.7507
 31
0.0
  0
LINE
  8
0
 62
     0
 10
150.738
 20
93.7507
 30
0.0
 11
151.059
 21
93.405
 31
0.0
  0
LINE
  8
0
 62
     0
 10
151.059
 20
93.405
 30
0.0
 11
151.35
 21
93.0342
 31
0.0
  0
LINE
  8
0
 62
     0
 10
151.35
 20
93.0342
 30
0.0
 11
151.612
 21
92.6426
 31
0.0
  0
LINE
  8
0
 62
     0
 10
151.612
 20
92.6426
 30
0.0
 11
151.842
 21
92.2306
 31
0.0
  0
LINE
  8
0
 62
     0
 10
151.842
 20
92.2306
 30
0.0
 11
152.039
 21
91.8048
 31
0.0
  0
LINE
  8
0
 62
     0
 10
152.039
 20
91.8048
 30
0.0
 11
152.203
 21
91.3624
 31
0.0
  0
LINE
  8
0
 62
     0
 10
152.203
 20
91.3624
 30
0.0
 11
152.331
 21
90.9077
 31
0.0
  0
LINE
  8
0
 62
     0
 10
152.331
 20
90.9077
 30
0.0
 11
152.422
 21
90.4462
 31
0.0
  0
LINE
  8
0
 62
     0
 10
152.422
 20
90.4462
 30
0.0
 11
152.477
 21
89.9777
 31
0.0
  0
LINE
  8
0
 62
     0
 10
152.477
 20
89.9777
 30
0.0
 11
152.496
 21
89.5078
 31
0.0
  0
LINE
  8
0
 62
     0
 10
152.496
 20
89.5078
 30
0.0
 11
152.496
 21
6.25768
 31
0.0
  0
LINE
  8
0
 62
     0
 10
152.496
 20
6.25768
 30
0.0
 11
152.477
 21
5.78637
 31
0.0
  0
LINE
  8
0
 62
     0
 10
152.477
 20
5.78637
 30
0.0
 11
152.422
 21
5.31784
 31
0.0
  0
LINE
  8
0
 62
     0
 10
152.422
 20
5.31784
 30
0.0
 11
152.331
 21
4.8562
 31
0.0
  0
LINE
  8
0
 62
     0
 10
152.331
 20
4.8562
 30
0.0
 11
152.203
 21
4.40284
 31
0.0
  0
LINE
  8
0
 62
     0
 10
152.203
 20
4.40284
 30
0.0
 11
152.039
 21
3.96049
 31
0.0
  0
LINE
  8
0
 62
     0
 10
152.039
 20
3.96049
 30
0.0
 11
151.842
 21
3.53328
 31
0.0
  0
LINE
  8
0
 62
     0
 10
151.842
 20
3.53328
 30
0.0
 11
151.612
 21
3.12263
 31
0.0
  0
LINE
  8
0
 62
     0
 10
151.612
 20
3.12263
 30
0.0
 11
151.35
 21
2.72989
 31
0.0
  0
LINE
  8
0
 62
     0
 10
151.35
 20
2.72989
 30
0.0
 11
151.059
 21
2.36058
 31
0.0
  0
LINE
  8
0
 62
     0
 10
151.059
 20
2.36058
 30
0.0
 11
150.738
 21
2.01469
 31
0.0
  0
LINE
  8
0
 62
     0
 10
150.738
 20
2.01469
 30
0.0
 11
150.392
 21
1.69361
 31
0.0
  0
LINE
  8
0
 62
     0
 10
150.392
 20
1.69361
 30
0.0
 11
150.023
 21
1.40284
 31
0.0
  0
LINE
  8
0
 62
     0
 10
150.023
 20
1.40284
 30
0.0
 11
149.63
 21
1.14102
 31
0.0
  0
LINE
  8
0
 62
     0
 10
149.63
 20
1.14102
 30
0.0
 11
149.219
 21
0.910883
 31
0.0
  0
LINE
  8
0
 62
     0
 10
149.219
 20
0.910883
 30
0.0
 11
148.792
 21
0.713825
 31
0.0
  0
LINE
  8
0
 62
     0
 10
148.792
 20
0.713825
 30
0.0
 11
148.35
 21
0.549836
 31
0.0
  0
LINE
  8
0
 62
     0
 10
148.35
 20
0.549836
 30
0.0
 11
147.896
 21
0.421679
 31
0.0
  0
LINE
  8
0
 62
     0
 10
147.896
 20
0.421679
 30
0.0
 11
147.435
 21
0.330729
 31
0.0
  0
LINE
  8
0
 62
     0
 10
147.435
 20
0.330729
 30
0.0
 11
146.967
 21
0.275608
 31
0.0
  0
LINE
  8
0
 62
     0
 10
146.967
 20
0.275608
 30
0.0
 11
146.495
 21
0.256315
 31
0.0
  0
LINE
  8
0
 62
     0
 10
146.495
 20
0.256315
 30
0.0
 11
6.09505
 21
0.257693
 31
0.0
  0
LINE
  8
0
 62
     0
 10
6.09505
 20
0.257693
 30
0.0
 11
5.62515
 21
0.275608
 31
0.0
  0
LINE
  8
0
 62
     0
 10
5.62515
 20
0.275608
 30
0.0
 11
5.15662
 21
0.330729
 31
0.0
  0
LINE
  8
0
 62
     0
 10
5.15662
 20
0.330729
 30
0.0
 11
4.69498
 21
0.421679
 31
0.0
  0
LINE
  8
0
 62
     0
 10
4.69498
 20
0.421679
 30
0.0
 11
4.24021
 21
0.549836
 31
0.0
  0
LINE
  8
0
 62
     0
 10
4.24021
 20
0.549836
 30
0.0
 11
3.79786
 21
0.713825
 31
0.0
  0
LINE
  8
0
 62
     0
 10
3.79786
 20
0.713825
 30
0.0
 11
3.37206
 21
0.910883
 31
0.0
  0
LINE
  8
0
 62
     0
 10
3.37206
 20
0.910883
 30
0.0
 11
2.96003
 21
1.14102
 31
0.0
  0
LINE
  8
0
 62
     0
 10
2.96003
 20
1.14102
 30
0.0
 11
2.56866
 21
1.40284
 31
0.0
  0
LINE
  8
0
 62
     0
 10
2.56866
 20
1.40284
 30
0.0
 11
2.19797
 21
1.69361
 31
0.0
  0
LINE
  8
0
 62
     0
 10
2.19797
 20
1.69361
 30
0.0
 11
1.85208
 21
2.01469
 31
0.0
  0
LINE
  8
0
 62
     0
 10
1.85208
 20
2.01469
 30
0.0
 11
1.53238
 21
2.36058
 31
0.0
  0
LINE
  8
0
 62
     0
 10
1.53238
 20
2.36058
 30
0.0
 11
1.24024
 21
2.72989
 31
0.0
  0
LINE
  8
0
 62
     0
 10
1.24024
 20
2.72989
 30
0.0
 11
0.979784
 21
3.12263
 31
0.0
  0
LINE
  8
0
 62
     0
 10
0.979784
 20
3.12263
 30
0.0
 11
0.748273
 21
3.53328
 31
0.0
  0
LINE
  8
0
 62
     0
 10
0.748273
 20
3.53328
 30
0.0
 11
0.551215
 21
3.96049
 31
0.0
  0
LINE
  8
0
 62
     0
 10
0.551215
 20
3.96049
 30
0.0
 11
0.388606
 21
4.40284
 31
0.0
  0
LINE
  8
0
 62
     0
 10
0.388606
 20
4.40284
 30
0.0
 11
0.260449
 21
4.8562
 31
0.0
  0
LINE
  8
0
 62
     0
 10
0.260449
 20
4.8562
 30
0.0
 11
0.168121
 21
5.31784
 31
0.0
  0
LINE
  8
0
 62
     0
 10
0.168121
 20
5.31784
 30
0.0
 11
0.112999
 21
5.78637
 31
0.0
  0
LINE
  8
0
 62
     0
 10
0.112999
 20
5.78637
 30
0.0
 11
0.0950846
 21
6.25768
 31
0.0
  0
LINE
  8
0
 62
     0
 10
0.0950846
 20
6.25768
 30
0.0
 11
0.0950846
 21
89.5078
 31
0.0
  0
LINE
  8
0
 62
     0
 10
0.0950846
 20
89.5078
 30
0.0
 11
0.112999
 21
89.9777
 31
0.0
  0
LINE
  8
0
 62
     0
 10
0.112999
 20
89.9777
 30
0.0
 11
0.168121
 21
90.4462
 31
0.0
  0
LINE
  8
0
 62
     0
 10
0.168121
 20
90.4462
 30
0.0
 11
0.260449
 21
90.9077
 31
0.0
  0
LINE
  8
0
 62
     0
 10
0.260449
 20
90.9077
 30
0.0
 11
0.388606
 21
91.3624
 31
0.0
  0
LINE
  8
0
 62
     0
 10
0.388606
 20
91.3624
 30
0.0
 11
0.551215
 21
91.8048
 31
0.0
  0
LINE
  8
0
 62
     0
 10
0.551215
 20
91.8048
 30
0.0
 11
0.748273
 21
92.2306
 31
0.0
  0
LINE
  8
0
 62
     0
 10
0.748273
 20
92.2306
 30
0.0
 11
0.979784
 21
92.6426
 31
0.0
  0
LINE
  8
0
 62
     0
 10
0.979784
 20
92.6426
 30
0.0
 11
1.24024
 21
93.0342
 31
0.0
  0
LINE
  8
0
 62
     0
 10
1.24024
 20
93.0342
 30
0.0
 11
1.53238
 21
93.405
 31
0.0
  0
LINE
  8
0
 62
     0
 10
1.53238
 20
93.405
 30
0.0
 11
1.85208
 21
93.7507
 31
0.0
  0
LINE
  8
0
 62
     0
 10
1.85208
 20
93.7507
 30
0.0
 11
2.19797
 21
94.0703
 31
0.0
  0
LINE
  8
0
 62
     0
 10
2.19797
 20
94.0703
 30
0.0
 11
2.56866
 21
94.3624
 31
0.0
  0
LINE
  8
0
 62
     0
 10
2.56866
 20
94.3624
 30
0.0
 11
2.96003
 21
94.6231
 31
0.0
  0
LINE
  8
0
 62
     0
 10
2.96003
 20
94.6231
 30
0.0
 11
3.37206
 21
94.8545
 31
0.0
  0
LINE
  8
0
 62
     0
 10
3.37206
 20
94.8545
 30
0.0
 11
3.79786
 21
95.0517
 31
0.0
  0
LINE
  8
0
 62
     0
 10
3.79786
 20
95.0517
 30
0.0
 11
4.24021
 21
95.214
 31
0.0
  0
LINE
  8
0
 62
     0
 10
4.24021
 20
95.214
 30
0.0
 11
4.69498
 21
95.3424
 31
0.0
  0
LINE
  8
0
 62
     0
 10
4.69498
 20
95.3424
 30
0.0
 11
5.15662
 21
95.4345
 31
0.0
  0
LINE
  8
0
 62
     0
 10
5.15662
 20
95.4345
 30
0.0
 11
5.62515
 21
95.4899
 31
0.0
  0
LINE
  8
0
 62
     0
 10
5.62515
 20
95.4899
 30
0.0
 11
6.09505
 21
95.5075
 31
0.0
  0
LINE
  8
0
 62
     0
 10
6.09505
 20
95.5075
 30
0.0
 11
146.497
 21
95.5075
 31
0.0
  0
LINE
  8
0
 62
     0
 10
31.196
 20
16.7817
 30
0.0
 11
31.196
 21
15.7827
 31
0.0
  0
LINE
  8
0
 62
     0
 10
31.196
 20
15.7827
 30
0.0
 11
30.3954
 21
15.7827
 31
0.0
  0
LINE
  8
0
 62
     0
 10
30.3954
 20
15.7827
 30
0.0
 11
30.3954
 21
12.6835
 31
0.0
  0
LINE
  8
0
 62
     0
 10
30.3954
 20
12.6835
 30
0.0
 11
31.196
 21
12.6835
 31
0.0
  0
LINE
  8
0
 62
     0
 10
31.196
 20
12.6835
 30
0.0
 11
31.196
 21
12.0826
 31
0.0
  0
LINE
  8
0
 62
     0
 10
31.196
 20
12.0826
 30
0.0
 11
29.6706
 21
12.0826
 31
0.0
  0
LINE
  8
0
 62
     0
 10
29.6706
 20
12.0826
 30
0.0
 11
29.6706
 21
15.3128
 31
0.0
  0
LINE
  8
0
 62
     0
 10
29.6706
 20
15.3128
 30
0.0
 11
27.9452
 21
15.3128
 31
0.0
  0
LINE
  8
0
 62
     0
 10
27.9452
 20
15.3128
 30
0.0
 11
27.9452
 21
16.2333
 31
0.0
  0
LINE
  8
0
 62
     0
 10
27.9452
 20
16.2333
 30
0.0
 11
24.6448
 21
16.2333
 31
0.0
  0
LINE
  8
0
 62
     0
 10
24.6448
 20
16.2333
 30
0.0
 11
24.6448
 21
15.3128
 31
0.0
  0
LINE
  8
0
 62
     0
 10
24.6448
 20
15.3128
 30
0.0
 11
22.9209
 21
15.3128
 31
0.0
  0
LINE
  8
0
 62
     0
 10
22.9209
 20
15.3128
 30
0.0
 11
22.9209
 21
12.0826
 31
0.0
  0
LINE
  8
0
 62
     0
 10
22.9209
 20
12.0826
 30
0.0
 11
22.0955
 21
12.0826
 31
0.0
  0
LINE
  8
0
 62
     0
 10
22.0955
 20
12.0826
 30
0.0
 11
22.0955
 21
9.28247
 31
0.0
  0
LINE
  8
0
 62
     0
 10
22.0955
 20
9.28247
 30
0.0
 11
22.9209
 21
9.28247
 31
0.0
  0
LINE
  8
0
 62
     0
 10
22.9209
 20
9.28247
 30
0.0
 11
22.9209
 21
3.01377
 31
0.0
  0
LINE
  8
0
 62
     0
 10
22.9209
 20
3.01377
 30
0.0
 11
24.6448
 21
3.01377
 31
0.0
  0
LINE
  8
0
 62
     0
 10
24.6448
 20
3.01377
 30
0.0
 11
24.6448
 21
2.03261
 31
0.0
  0
LINE
  8
0
 62
     0
 10
24.6448
 20
2.03261
 30
0.0
 11
27.9452
 21
2.03261
 31
0.0
  0
LINE
  8
0
 62
     0
 10
27.9452
 20
2.03261
 30
0.0
 11
27.9452
 21
3.01377
 31
0.0
  0
LINE
  8
0
 62
     0
 10
27.9452
 20
3.01377
 30
0.0
 11
29.6706
 21
3.01377
 31
0.0
  0
LINE
  8
0
 62
     0
 10
29.6706
 20
3.01377
 30
0.0
 11
29.6706
 21
7.48273
 31
0.0
  0
LINE
  8
0
 62
     0
 10
29.6706
 20
7.48273
 30
0.0
 11
31.196
 21
7.48273
 31
0.0
  0
LINE
  8
0
 62
     0
 10
31.196
 20
7.48273
 30
0.0
 11
31.196
 21
6.88192
 31
0.0
  0
LINE
  8
0
 62
     0
 10
31.196
 20
6.88192
 30
0.0
 11
30.3954
 21
6.88192
 31
0.0
  0
LINE
  8
0
 62
     0
 10
30.3954
 20
6.88192
 30
0.0
 11
30.3954
 21
3.78273
 31
0.0
  0
LINE
  8
0
 62
     0
 10
30.3954
 20
3.78273
 30
0.0
 11
31.196
 21
3.78273
 31
0.0
  0
LINE
  8
0
 62
     0
 10
31.196
 20
3.78273
 30
0.0
 11
31.196
 21
2.78226
 31
0.0
  0
LINE
  8
0
 62
     0
 10
31.196
 20
2.78226
 30
0.0
 11
45.1954
 21
2.78226
 31
0.0
  0
LINE
  8
0
 62
     0
 10
45.1954
 20
2.78226
 30
0.0
 11
45.1954
 21
3.78273
 31
0.0
  0
LINE
  8
0
 62
     0
 10
45.1954
 20
3.78273
 30
0.0
 11
45.9962
 21
3.78273
 31
0.0
  0
LINE
  8
0
 62
     0
 10
45.9962
 20
3.78273
 30
0.0
 11
45.9962
 21
6.88192
 31
0.0
  0
LINE
  8
0
 62
     0
 10
45.9962
 20
6.88192
 30
0.0
 11
45.1954
 21
6.88192
 31
0.0
  0
LINE
  8
0
 62
     0
 10
45.1954
 20
6.88192
 30
0.0
 11
45.1954
 21
7.48273
 31
0.0
  0
LINE
  8
0
 62
     0
 10
45.1954
 20
7.48273
 30
0.0
 11
46.7212
 21
7.48273
 31
0.0
  0
LINE
  8
0
 62
     0
 10
46.7212
 20
7.48273
 30
0.0
 11
46.7212
 21
3.01377
 31
0.0
  0
LINE
  8
0
 62
     0
 10
46.7212
 20
3.01377
 30
0.0
 11
48.4449
 21
3.01377
 31
0.0
  0
LINE
  8
0
 62
     0
 10
48.4449
 20
3.01377
 30
0.0
 11
48.4449
 21
2.03261
 31
0.0
  0
LINE
  8
0
 62
     0
 10
48.4449
 20
2.03261
 30
0.0
 11
51.7454
 21
2.03261
 31
0.0
  0
LINE
  8
0
 62
     0
 10
51.7454
 20
2.03261
 30
0.0
 11
51.7454
 21
3.01377
 31
0.0
  0
LINE
  8
0
 62
     0
 10
51.7454
 20
3.01377
 30
0.0
 11
53.4705
 21
3.01377
 31
0.0
  0
LINE
  8
0
 62
     0
 10
53.4705
 20
3.01377
 30
0.0
 11
53.4705
 21
9.28247
 31
0.0
  0
LINE
  8
0
 62
     0
 10
53.4705
 20
9.28247
 30
0.0
 11
54.296
 21
9.28247
 31
0.0
  0
LINE
  8
0
 62
     0
 10
54.296
 20
9.28247
 30
0.0
 11
54.296
 21
12.0826
 31
0.0
  0
LINE
  8
0
 62
     0
 10
54.296
 20
12.0826
 30
0.0
 11
53.4705
 21
12.0826
 31
0.0
  0
LINE
  8
0
 62
     0
 10
53.4705
 20
12.0826
 30
0.0
 11
53.4705
 21
15.3128
 31
0.0
  0
LINE
  8
0
 62
     0
 10
53.4705
 20
15.3128
 30
0.0
 11
51.7454
 21
15.3128
 31
0.0
  0
LINE
  8
0
 62
     0
 10
51.7454
 20
15.3128
 30
0.0
 11
51.7454
 21
16.2333
 31
0.0
  0
LINE
  8
0
 62
     0
 10
51.7454
 20
16.2333
 30
0.0
 11
48.4449
 21
16.2333
 31
0.0
  0
LINE
  8
0
 62
     0
 10
48.4449
 20
16.2333
 30
0.0
 11
48.4449
 21
15.3128
 31
0.0
  0
LINE
  8
0
 62
     0
 10
48.4449
 20
15.3128
 30
0.0
 11
46.7212
 21
15.3128
 31
0.0
  0
LINE
  8
0
 62
     0
 10
46.7212
 20
15.3128
 30
0.0
 11
46.7212
 21
12.0826
 31
0.0
  0
LINE
  8
0
 62
     0
 10
46.7212
 20
12.0826
 30
0.0
 11
45.1954
 21
12.0826
 31
0.0
  0
LINE
  8
0
 62
     0
 10
45.1954
 20
12.0826
 30
0.0
 11
45.1954
 21
12.6835
 31
0.0
  0
LINE
  8
0
 62
     0
 10
45.1954
 20
12.6835
 30
0.0
 11
45.9962
 21
12.6835
 31
0.0
  0
LINE
  8
0
 62
     0
 10
45.9962
 20
12.6835
 30
0.0
 11
45.9962
 21
15.7827
 31
0.0
  0
LINE
  8
0
 62
     0
 10
45.9962
 20
15.7827
 30
0.0
 11
45.1954
 21
15.7827
 31
0.0
  0
LINE
  8
0
 62
     0
 10
45.1954
 20
15.7827
 30
0.0
 11
45.1954
 21
16.7817
 31
0.0
  0
LINE
  8
0
 62
     0
 10
45.1954
 20
16.7817
 30
0.0
 11
31.196
 21
16.7817
 31
0.0
  0
LINE
  8
0
 62
     0
 10
69.2961
 20
16.7817
 30
0.0
 11
69.2961
 21
15.7827
 31
0.0
  0
LINE
  8
0
 62
     0
 10
69.2961
 20
15.7827
 30
0.0
 11
68.4953
 21
15.7827
 31
0.0
  0
LINE
  8
0
 62
     0
 10
68.4953
 20
15.7827
 30
0.0
 11
68.4953
 21
12.6835
 31
0.0
  0
LINE
  8
0
 62
     0
 10
68.4953
 20
12.6835
 30
0.0
 11
69.2961
 21
12.6835
 31
0.0
  0
LINE
  8
0
 62
     0
 10
69.2961
 20
12.6835
 30
0.0
 11
69.2961
 21
12.0826
 31
0.0
  0
LINE
  8
0
 62
     0
 10
69.2961
 20
12.0826
 30
0.0
 11
67.7704
 21
12.0826
 31
0.0
  0
LINE
  8
0
 62
     0
 10
67.7704
 20
12.0826
 30
0.0
 11
67.7704
 21
15.3128
 31
0.0
  0
LINE
  8
0
 62
     0
 10
67.7704
 20
15.3128
 30
0.0
 11
66.0453
 21
15.3128
 31
0.0
  0
LINE
  8
0
 62
     0
 10
66.0453
 20
15.3128
 30
0.0
 11
66.0453
 21
16.2333
 31
0.0
  0
LINE
  8
0
 62
     0
 10
66.0453
 20
16.2333
 30
0.0
 11
62.7447
 21
16.2333
 31
0.0
  0
LINE
  8
0
 62
     0
 10
62.7447
 20
16.2333
 30
0.0
 11
62.7447
 21
15.3128
 31
0.0
  0
LINE
  8
0
 62
     0
 10
62.7447
 20
15.3128
 30
0.0
 11
61.021
 21
15.3128
 31
0.0
  0
LINE
  8
0
 62
     0
 10
61.021
 20
15.3128
 30
0.0
 11
61.021
 21
12.0826
 31
0.0
  0
LINE
  8
0
 62
     0
 10
61.021
 20
12.0826
 30
0.0
 11
60.1941
 21
12.0826
 31
0.0
  0
LINE
  8
0
 62
     0
 10
60.1941
 20
12.0826
 30
0.0
 11
60.1941
 21
9.28247
 31
0.0
  0
LINE
  8
0
 62
     0
 10
60.1941
 20
9.28247
 30
0.0
 11
61.021
 21
9.28247
 31
0.0
  0
LINE
  8
0
 62
     0
 10
61.021
 20
9.28247
 30
0.0
 11
61.021
 21
3.01377
 31
0.0
  0
LINE
  8
0
 62
     0
 10
61.021
 20
3.01377
 30
0.0
 11
62.7447
 21
3.01377
 31
0.0
  0
LINE
  8
0
 62
     0
 10
62.7447
 20
3.01377
 30
0.0
 11
62.7447
 21
2.03261
 31
0.0
  0
LINE
  8
0
 62
     0
 10
62.7447
 20
2.03261
 30
0.0
 11
66.0453
 21
2.03261
 31
0.0
  0
LINE
  8
0
 62
     0
 10
66.0453
 20
2.03261
 30
0.0
 11
66.0453
 21
3.01377
 31
0.0
  0
LINE
  8
0
 62
     0
 10
66.0453
 20
3.01377
 30
0.0
 11
67.7704
 21
3.01377
 31
0.0
  0
LINE
  8
0
 62
     0
 10
67.7704
 20
3.01377
 30
0.0
 11
67.7704
 21
7.48273
 31
0.0
  0
LINE
  8
0
 62
     0
 10
67.7704
 20
7.48273
 30
0.0
 11
69.2961
 21
7.48273
 31
0.0
  0
LINE
  8
0
 62
     0
 10
69.2961
 20
7.48273
 30
0.0
 11
69.2961
 21
6.88192
 31
0.0
  0
LINE
  8
0
 62
     0
 10
69.2961
 20
6.88192
 30
0.0
 11
68.4953
 21
6.88192
 31
0.0
  0
LINE
  8
0
 62
     0
 10
68.4953
 20
6.88192
 30
0.0
 11
68.4953
 21
3.78273
 31
0.0
  0
LINE
  8
0
 62
     0
 10
68.4953
 20
3.78273
 30
0.0
 11
69.2961
 21
3.78273
 31
0.0
  0
LINE
  8
0
 62
     0
 10
69.2961
 20
3.78273
 30
0.0
 11
69.2961
 21
2.78226
 31
0.0
  0
LINE
  8
0
 62
     0
 10
69.2961
 20
2.78226
 30
0.0
 11
83.2954
 21
2.78226
 31
0.0
  0
LINE
  8
0
 62
     0
 10
83.2954
 20
2.78226
 30
0.0
 11
83.2954
 21
3.78273
 31
0.0
  0
LINE
  8
0
 62
     0
 10
83.2954
 20
3.78273
 30
0.0
 11
84.0962
 21
3.78273
 31
0.0
  0
LINE
  8
0
 62
     0
 10
84.0962
 20
3.78273
 30
0.0
 11
84.0962
 21
6.88192
 31
0.0
  0
LINE
  8
0
 62
     0
 10
84.0962
 20
6.88192
 30
0.0
 11
83.2954
 21
6.88192
 31
0.0
  0
LINE
  8
0
 62
     0
 10
83.2954
 20
6.88192
 30
0.0
 11
83.2954
 21
7.48273
 31
0.0
  0
LINE
  8
0
 62
     0
 10
83.2954
 20
7.48273
 30
0.0
 11
84.8212
 21
7.48273
 31
0.0
  0
LINE
  8
0
 62
     0
 10
84.8212
 20
7.48273
 30
0.0
 11
84.8212
 21
3.01377
 31
0.0
  0
LINE
  8
0
 62
     0
 10
84.8212
 20
3.01377
 30
0.0
 11
86.5449
 21
3.01377
 31
0.0
  0
LINE
  8
0
 62
     0
 10
86.5449
 20
3.01377
 30
0.0
 11
86.5449
 21
2.03261
 31
0.0
  0
LINE
  8
0
 62
     0
 10
86.5449
 20
2.03261
 30
0.0
 11
89.8454
 21
2.03261
 31
0.0
  0
LINE
  8
0
 62
     0
 10
89.8454
 20
2.03261
 30
0.0
 11
89.8454
 21
3.01377
 31
0.0
  0
LINE
  8
0
 62
     0
 10
89.8454
 20
3.01377
 30
0.0
 11
91.5705
 21
3.01377
 31
0.0
  0
LINE
  8
0
 62
     0
 10
91.5705
 20
3.01377
 30
0.0
 11
91.5705
 21
9.28247
 31
0.0
  0
LINE
  8
0
 62
     0
 10
91.5705
 20
9.28247
 30
0.0
 11
92.396
 21
9.28247
 31
0.0
  0
LINE
  8
0
 62
     0
 10
92.396
 20
9.28247
 30
0.0
 11
92.396
 21
12.0826
 31
0.0
  0
LINE
  8
0
 62
     0
 10
92.396
 20
12.0826
 30
0.0
 11
91.5705
 21
12.0826
 31
0.0
  0
LINE
  8
0
 62
     0
 10
91.5705
 20
12.0826
 30
0.0
 11
91.5705
 21
15.3128
 31
0.0
  0
LINE
  8
0
 62
     0
 10
91.5705
 20
15.3128
 30
0.0
 11
89.8454
 21
15.3128
 31
0.0
  0
LINE
  8
0
 62
     0
 10
89.8454
 20
15.3128
 30
0.0
 11
89.8454
 21
16.2333
 31
0.0
  0
LINE
  8
0
 62
     0
 10
89.8454
 20
16.2333
 30
0.0
 11
86.5449
 21
16.2333
 31
0.0
  0
LINE
  8
0
 62
     0
 10
86.5449
 20
16.2333
 30
0.0
 11
86.5449
 21
15.3128
 31
0.0
  0
LINE
  8
0
 62
     0
 10
86.5449
 20
15.3128
 30
0.0
 11
84.8212
 21
15.3128
 31
0.0
  0
LINE
  8
0
 62
     0
 10
84.8212
 20
15.3128
 30
0.0
 11
84.8212
 21
12.0826
 31
0.0
  0
LINE
  8
0
 62
     0
 10
84.8212
 20
12.0826
 30
0.0
 11
83.2954
 21
12.0826
 31
0.0
  0
LINE
  8
0
 62
     0
 10
83.2954
 20
12.0826
 30
0.0
 11
83.2954
 21
12.6835
 31
0.0
  0
LINE
  8
0
 62
     0
 10
83.2954
 20
12.6835
 30
0.0
 11
84.0962
 21
12.6835
 31
0.0
  0
LINE
  8
0
 62
     0
 10
84.0962
 20
12.6835
 30
0.0
 11
84.0962
 21
15.7827
 31
0.0
  0
LINE
  8
0
 62
     0
 10
84.0962
 20
15.7827
 30
0.0
 11
83.2954
 21
15.7827
 31
0.0
  0
LINE
  8
0
 62
     0
 10
83.2954
 20
15.7827
 30
0.0
 11
83.2954
 21
16.7817
 31
0.0
  0
LINE
  8
0
 62
     0
 10
83.2954
 20
16.7817
 30
0.0
 11
69.2961
 21
16.7817
 31
0.0
  0
LINE
  8
0
 62
     0
 10
107.396
 20
16.7817
 30
0.0
 11
107.396
 21
15.7827
 31
0.0
  0
LINE
  8
0
 62
     0
 10
107.396
 20
15.7827
 30
0.0
 11
106.595
 21
15.7827
 31
0.0
  0
LINE
  8
0
 62
     0
 10
106.595
 20
15.7827
 30
0.0
 11
106.595
 21
12.6835
 31
0.0
  0
LINE
  8
0
 62
     0
 10
106.595
 20
12.6835
 30
0.0
 11
107.396
 21
12.6835
 31
0.0
  0
LINE
  8
0
 62
     0
 10
107.396
 20
12.6835
 30
0.0
 11
107.396
 21
12.0826
 31
0.0
  0
LINE
  8
0
 62
     0
 10
107.396
 20
12.0826
 30
0.0
 11
105.87
 21
12.0826
 31
0.0
  0
LINE
  8
0
 62
     0
 10
105.87
 20
12.0826
 30
0.0
 11
105.87
 21
15.3128
 31
0.0
  0
LINE
  8
0
 62
     0
 10
105.87
 20
15.3128
 30
0.0
 11
104.145
 21
15.3128
 31
0.0
  0
LINE
  8
0
 62
     0
 10
104.145
 20
15.3128
 30
0.0
 11
104.145
 21
16.2333
 31
0.0
  0
LINE
  8
0
 62
     0
 10
104.145
 20
16.2333
 30
0.0
 11
100.845
 21
16.2333
 31
0.0
  0
LINE
  8
0
 62
     0
 10
100.845
 20
16.2333
 30
0.0
 11
100.845
 21
15.3128
 31
0.0
  0
LINE
  8
0
 62
     0
 10
100.845
 20
15.3128
 30
0.0
 11
99.121
 21
15.3128
 31
0.0
  0
LINE
  8
0
 62
     0
 10
99.121
 20
15.3128
 30
0.0
 11
99.121
 21
12.0826
 31
0.0
  0
LINE
  8
0
 62
     0
 10
99.121
 20
12.0826
 30
0.0
 11
98.2955
 21
12.0826
 31
0.0
  0
LINE
  8
0
 62
     0
 10
98.2955
 20
12.0826
 30
0.0
 11
98.2955
 21
9.28247
 31
0.0
  0
LINE
  8
0
 62
     0
 10
98.2955
 20
9.28247
 30
0.0
 11
99.121
 21
9.28247
 31
0.0
  0
LINE
  8
0
 62
     0
 10
99.121
 20
9.28247
 30
0.0
 11
99.121
 21
3.01377
 31
0.0
  0
LINE
  8
0
 62
     0
 10
99.121
 20
3.01377
 30
0.0
 11
100.845
 21
3.01377
 31
0.0
  0
LINE
  8
0
 62
     0
 10
100.845
 20
3.01377
 30
0.0
 11
100.845
 21
2.03261
 31
0.0
  0
LINE
  8
0
 62
     0
 10
100.845
 20
2.03261
 30
0.0
 11
104.145
 21
2.03261
 31
0.0
  0
LINE
  8
0
 62
     0
 10
104.145
 20
2.03261
 30
0.0
 11
104.145
 21
3.01377
 31
0.0
  0
LINE
  8
0
 62
     0
 10
104.145
 20
3.01377
 30
0.0
 11
105.87
 21
3.01377
 31
0.0
  0
LINE
  8
0
 62
     0
 10
105.87
 20
3.01377
 30
0.0
 11
105.87
 21
7.48273
 31
0.0
  0
LINE
  8
0
 62
     0
 10
105.87
 20
7.48273
 30
0.0
 11
107.396
 21
7.48273
 31
0.0
  0
LINE
  8
0
 62
     0
 10
107.396
 20
7.48273
 30
0.0
 11
107.396
 21
6.88192
 31
0.0
  0
LINE
  8
0
 62
     0
 10
107.396
 20
6.88192
 30
0.0
 11
106.595
 21
6.88192
 31
0.0
  0
LINE
  8
0
 62
     0
 10
106.595
 20
6.88192
 30
0.0
 11
106.595
 21
3.78273
 31
0.0
  0
LINE
  8
0
 62
     0
 10
106.595
 20
3.78273
 30
0.0
 11
107.396
 21
3.78273
 31
0.0
  0
LINE
  8
0
 62
     0
 10
107.396
 20
3.78273
 30
0.0
 11
107.396
 21
2.78226
 31
0.0
  0
LINE
  8
0
 62
     0
 10
107.396
 20
2.78226
 30
0.0
 11
121.395
 21
2.78226
 31
0.0
  0
LINE
  8
0
 62
     0
 10
121.395
 20
2.78226
 30
0.0
 11
121.395
 21
3.78273
 31
0.0
  0
LINE
  8
0
 62
     0
 10
121.395
 20
3.78273
 30
0.0
 11
122.196
 21
3.78273
 31
0.0
  0
LINE
  8
0
 62
     0
 10
122.196
 20
3.78273
 30
0.0
 11
122.196
 21
6.88192
 31
0.0
  0
LINE
  8
0
 62
     0
 10
122.196
 20
6.88192
 30
0.0
 11
121.395
 21
6.88192
 31
0.0
  0
LINE
  8
0
 62
     0
 10
121.395
 20
6.88192
 30
0.0
 11
121.395
 21
7.48273
 31
0.0
  0
LINE
  8
0
 62
     0
 10
121.395
 20
7.48273
 30
0.0
 11
122.921
 21
7.48273
 31
0.0
  0
LINE
  8
0
 62
     0
 10
122.921
 20
7.48273
 30
0.0
 11
122.921
 21
3.01377
 31
0.0
  0
LINE
  8
0
 62
     0
 10
122.921
 20
3.01377
 30
0.0
 11
124.645
 21
3.01377
 31
0.0
  0
LINE
  8
0
 62
     0
 10
124.645
 20
3.01377
 30
0.0
 11
124.645
 21
2.03261
 31
0.0
  0
LINE
  8
0
 62
     0
 10
124.645
 20
2.03261
 30
0.0
 11
127.945
 21
2.03261
 31
0.0
  0
LINE
  8
0
 62
     0
 10
127.945
 20
2.03261
 30
0.0
 11
127.945
 21
3.01377
 31
0.0
  0
LINE
  8
0
 62
     0
 10
127.945
 20
3.01377
 30
0.0
 11
129.671
 21
3.01377
 31
0.0
  0
LINE
  8
0
 62
     0
 10
129.671
 20
3.01377
 30
0.0
 11
129.671
 21
9.28247
 31
0.0
  0
LINE
  8
0
 62
     0
 10
129.671
 20
9.28247
 30
0.0
 11
130.496
 21
9.28247
 31
0.0
  0
LINE
  8
0
 62
     0
 10
130.496
 20
9.28247
 30
0.0
 11
130.496
 21
12.0826
 31
0.0
  0
LINE
  8
0
 62
     0
 10
130.496
 20
12.0826
 30
0.0
 11
129.671
 21
12.0826
 31
0.0
  0
LINE
  8
0
 62
     0
 10
129.671
 20
12.0826
 30
0.0
 11
129.671
 21
15.3128
 31
0.0
  0
LINE
  8
0
 62
     0
 10
129.671
 20
15.3128
 30
0.0
 11
127.945
 21
15.3128
 31
0.0
  0
LINE
  8
0
 62
     0
 10
127.945
 20
15.3128
 30
0.0
 11
127.945
 21
16.2333
 31
0.0
  0
LINE
  8
0
 62
     0
 10
127.945
 20
16.2333
 30
0.0
 11
124.645
 21
16.2333
 31
0.0
  0
LINE
  8
0
 62
     0
 10
124.645
 20
16.2333
 30
0.0
 11
124.645
 21
15.3128
 31
0.0
  0
LINE
  8
0
 62
     0
 10
124.645
 20
15.3128
 30
0.0
 11
122.921
 21
15.3128
 31
0.0
  0
LINE
  8
0
 62
     0
 10
122.921
 20
15.3128
 30
0.0
 11
122.921
 21
12.0826
 31
0.0
  0
LINE
  8
0
 62
     0
 10
122.921
 20
12.0826
 30
0.0
 11
121.395
 21
12.0826
 31
0.0
  0
LINE
  8
0
 62
     0
 10
121.395
 20
12.0826
 30
0.0
 11
121.395
 21
12.6835
 31
0.0
  0
LINE
  8
0
 62
     0
 10
121.395
 20
12.6835
 30
0.0
 11
122.196
 21
12.6835
 31
0.0
  0
LINE
  8
0
 62
     0
 10
122.196
 20
12.6835
 30
0.0
 11
122.196
 21
15.7827
 31
0.0
  0
LINE
  8
0
 62
     0
 10
122.196
 20
15.7827
 30
0.0
 11
121.395
 21
15.7827
 31
0.0
  0
LINE
  8
0
 62
     0
 10
121.395
 20
15.7827
 30
0.0
 11
121.395
 21
16.7817
 31
0.0
  0
LINE
  8
0
 62
     0
 10
121.395
 20
16.7817
 30
0.0
 11
107.396
 21
16.7817
 31
0.0
  0
LINE
  8
0
 62
     0
 10
21.671
 20
35.8316
 30
0.0
 11
21.671
 21
34.8327
 31
0.0
  0
LINE
  8
0
 62
     0
 10
21.671
 20
34.8327
 30
0.0
 11
20.8704
 21
34.8327
 31
0.0
  0
LINE
  8
0
 62
     0
 10
20.8704
 20
34.8327
 30
0.0
 11
20.8704
 21
31.7335
 31
0.0
  0
LINE
  8
0
 62
     0
 10
20.8704
 20
31.7335
 30
0.0
 11
21.671
 21
31.7335
 31
0.0
  0
LINE
  8
0
 62
     0
 10
21.671
 20
31.7335
 30
0.0
 11
21.671
 21
25.9319
 31
0.0
  0
LINE
  8
0
 62
     0
 10
21.671
 20
25.9319
 30
0.0
 11
20.8704
 21
25.9319
 31
0.0
  0
LINE
  8
0
 62
     0
 10
20.8704
 20
25.9319
 30
0.0
 11
20.8704
 21
22.8327
 31
0.0
  0
LINE
  8
0
 62
     0
 10
20.8704
 20
22.8327
 30
0.0
 11
21.671
 21
22.8327
 31
0.0
  0
LINE
  8
0
 62
     0
 10
21.671
 20
22.8327
 30
0.0
 11
21.671
 21
21.8323
 31
0.0
  0
LINE
  8
0
 62
     0
 10
21.671
 20
21.8323
 30
0.0
 11
35.6704
 21
21.8323
 31
0.0
  0
LINE
  8
0
 62
     0
 10
35.6704
 20
21.8323
 30
0.0
 11
35.6704
 21
22.8327
 31
0.0
  0
LINE
  8
0
 62
     0
 10
35.6704
 20
22.8327
 30
0.0
 11
36.4712
 21
22.8327
 31
0.0
  0
LINE
  8
0
 62
     0
 10
36.4712
 20
22.8327
 30
0.0
 11
36.4712
 21
25.9319
 31
0.0
  0
LINE
  8
0
 62
     0
 10
36.4712
 20
25.9319
 30
0.0
 11
35.6704
 21
25.9319
 31
0.0
  0
LINE
  8
0
 62
     0
 10
35.6704
 20
25.9319
 30
0.0
 11
35.6704
 21
31.7335
 31
0.0
  0
LINE
  8
0
 62
     0
 10
35.6704
 20
31.7335
 30
0.0
 11
36.4712
 21
31.7335
 31
0.0
  0
LINE
  8
0
 62
     0
 10
36.4712
 20
31.7335
 30
0.0
 11
36.4712
 21
34.8327
 31
0.0
  0
LINE
  8
0
 62
     0
 10
36.4712
 20
34.8327
 30
0.0
 11
35.6704
 21
34.8327
 31
0.0
  0
LINE
  8
0
 62
     0
 10
35.6704
 20
34.8327
 30
0.0
 11
35.6704
 21
35.8316
 31
0.0
  0
LINE
  8
0
 62
     0
 10
35.6704
 20
35.8316
 30
0.0
 11
21.671
 21
35.8316
 31
0.0
  0
LINE
  8
0
 62
     0
 10
40.7211
 20
35.8316
 30
0.0
 11
40.7211
 21
34.8327
 31
0.0
  0
LINE
  8
0
 62
     0
 10
40.7211
 20
34.8327
 30
0.0
 11
39.9203
 21
34.8327
 31
0.0
  0
LINE
  8
0
 62
     0
 10
39.9203
 20
34.8327
 30
0.0
 11
39.9203
 21
31.7335
 31
0.0
  0
LINE
  8
0
 62
     0
 10
39.9203
 20
31.7335
 30
0.0
 11
40.7211
 21
31.7335
 31
0.0
  0
LINE
  8
0
 62
     0
 10
40.7211
 20
31.7335
 30
0.0
 11
40.7211
 21
25.9319
 31
0.0
  0
LINE
  8
0
 62
     0
 10
40.7211
 20
25.9319
 30
0.0
 11
39.9203
 21
25.9319
 31
0.0
  0
LINE
  8
0
 62
     0
 10
39.9203
 20
25.9319
 30
0.0
 11
39.9203
 21
22.8327
 31
0.0
  0
LINE
  8
0
 62
     0
 10
39.9203
 20
22.8327
 30
0.0
 11
40.7211
 21
22.8327
 31
0.0
  0
LINE
  8
0
 62
     0
 10
40.7211
 20
22.8327
 30
0.0
 11
40.7211
 21
21.8323
 31
0.0
  0
LINE
  8
0
 62
     0
 10
40.7211
 20
21.8323
 30
0.0
 11
54.7204
 21
21.8323
 31
0.0
  0
LINE
  8
0
 62
     0
 10
54.7204
 20
21.8323
 30
0.0
 11
54.7204
 21
22.8327
 31
0.0
  0
LINE
  8
0
 62
     0
 10
54.7204
 20
22.8327
 30
0.0
 11
55.5212
 21
22.8327
 31
0.0
  0
LINE
  8
0
 62
     0
 10
55.5212
 20
22.8327
 30
0.0
 11
55.5212
 21
25.9319
 31
0.0
  0
LINE
  8
0
 62
     0
 10
55.5212
 20
25.9319
 30
0.0
 11
54.7204
 21
25.9319
 31
0.0
  0
LINE
  8
0
 62
     0
 10
54.7204
 20
25.9319
 30
0.0
 11
54.7204
 21
31.7335
 31
0.0
  0
LINE
  8
0
 62
     0
 10
54.7204
 20
31.7335
 30
0.0
 11
55.5212
 21
31.7335
 31
0.0
  0
LINE
  8
0
 62
     0
 10
55.5212
 20
31.7335
 30
0.0
 11
55.5212
 21
34.8327
 31
0.0
  0
LINE
  8
0
 62
     0
 10
55.5212
 20
34.8327
 30
0.0
 11
54.7204
 21
34.8327
 31
0.0
  0
LINE
  8
0
 62
     0
 10
54.7204
 20
34.8327
 30
0.0
 11
54.7204
 21
35.8316
 31
0.0
  0
LINE
  8
0
 62
     0
 10
54.7204
 20
35.8316
 30
0.0
 11
40.7211
 21
35.8316
 31
0.0
  0
LINE
  8
0
 62
     0
 10
59.7711
 20
35.8316
 30
0.0
 11
59.7711
 21
34.8327
 31
0.0
  0
LINE
  8
0
 62
     0
 10
59.7711
 20
34.8327
 30
0.0
 11
58.9703
 21
34.8327
 31
0.0
  0
LINE
  8
0
 62
     0
 10
58.9703
 20
34.8327
 30
0.0
 11
58.9703
 21
31.7335
 31
0.0
  0
LINE
  8
0
 62
     0
 10
58.9703
 20
31.7335
 30
0.0
 11
59.7711
 21
31.7335
 31
0.0
  0
LINE
  8
0
 62
     0
 10
59.7711
 20
31.7335
 30
0.0
 11
59.7711
 21
25.9319
 31
0.0
  0
LINE
  8
0
 62
     0
 10
59.7711
 20
25.9319
 30
0.0
 11
58.9703
 21
25.9319
 31
0.0
  0
LINE
  8
0
 62
     0
 10
58.9703
 20
25.9319
 30
0.0
 11
58.9703
 21
22.8327
 31
0.0
  0
LINE
  8
0
 62
     0
 10
58.9703
 20
22.8327
 30
0.0
 11
59.7711
 21
22.8327
 31
0.0
  0
LINE
  8
0
 62
     0
 10
59.7711
 20
22.8327
 30
0.0
 11
59.7711
 21
21.8323
 31
0.0
  0
LINE
  8
0
 62
     0
 10
59.7711
 20
21.8323
 30
0.0
 11
73.7704
 21
21.8323
 31
0.0
  0
LINE
  8
0
 62
     0
 10
73.7704
 20
21.8323
 30
0.0
 11
73.7704
 21
22.8327
 31
0.0
  0
LINE
  8
0
 62
     0
 10
73.7704
 20
22.8327
 30
0.0
 11
74.5712
 21
22.8327
 31
0.0
  0
LINE
  8
0
 62
     0
 10
74.5712
 20
22.8327
 30
0.0
 11
74.5712
 21
25.9319
 31
0.0
  0
LINE
  8
0
 62
     0
 10
74.5712
 20
25.9319
 30
0.0
 11
73.7704
 21
25.9319
 31
0.0
  0
LINE
  8
0
 62
     0
 10
73.7704
 20
25.9319
 30
0.0
 11
73.7704
 21
31.7335
 31
0.0
  0
LINE
  8
0
 62
     0
 10
73.7704
 20
31.7335
 30
0.0
 11
74.5712
 21
31.7335
 31
0.0
  0
LINE
  8
0
 62
     0
 10
74.5712
 20
31.7335
 30
0.0
 11
74.5712
 21
34.8327
 31
0.0
  0
LINE
  8
0
 62
     0
 10
74.5712
 20
34.8327
 30
0.0
 11
73.7704
 21
34.8327
 31
0.0
  0
LINE
  8
0
 62
     0
 10
73.7704
 20
34.8327
 30
0.0
 11
73.7704
 21
35.8316
 31
0.0
  0
LINE
  8
0
 62
     0
 10
73.7704
 20
35.8316
 30
0.0
 11
59.7711
 21
35.8316
 31
0.0
  0
LINE
  8
0
 62
     0
 10
78.8211
 20
35.8316
 30
0.0
 11
78.8211
 21
34.8327
 31
0.0
  0
LINE
  8
0
 62
     0
 10
78.8211
 20
34.8327
 30
0.0
 11
78.0203
 21
34.8327
 31
0.0
  0
LINE
  8
0
 62
     0
 10
78.0203
 20
34.8327
 30
0.0
 11
78.0203
 21
31.7335
 31
0.0
  0
LINE
  8
0
 62
     0
 10
78.0203
 20
31.7335
 30
0.0
 11
78.8211
 21
31.7335
 31
0.0
  0
LINE
  8
0
 62
     0
 10
78.8211
 20
31.7335
 30
0.0
 11
78.8211
 21
25.9319
 31
0.0
  0
LINE
  8
0
 62
     0
 10
78.8211
 20
25.9319
 30
0.0
 11
78.0203
 21
25.9319
 31
0.0
  0
LINE
  8
0
 62
     0
 10
78.0203
 20
25.9319
 30
0.0
 11
78.0203
 21
22.8327
 31
0.0
  0
LINE
  8
0
 62
     0
 10
78.0203
 20
22.8327
 30
0.0
 11
78.8211
 21
22.8327
 31
0.0
  0
LINE
  8
0
 62
     0
 10
78.8211
 20
22.8327
 30
0.0
 11
78.8211
 21
21.8323
 31
0.0
  0
LINE
  8
0
 62
     0
 10
78.8211
 20
21.8323
 30
0.0
 11
92.8204
 21
21.8323
 31
0.0
  0
LINE
  8
0
 62
     0
 10
92.8204
 20
21.8323
 30
0.0
 11
92.8204
 21
22.8327
 31
0.0
  0
LINE
  8
0
 62
     0
 10
92.8204
 20
22.8327
 30
0.0
 11
93.6198
 21
22.8327
 31
0.0
  0
LINE
  8
0
 62
     0
 10
93.6198
 20
22.8327
 30
0.0
 11
93.6198
 21
25.9319
 31
0.0
  0
LINE
  8
0
 62
     0
 10
93.6198
 20
25.9319
 30
0.0
 11
92.8204
 21
25.9319
 31
0.0
  0
LINE
  8
0
 62
     0
 10
92.8204
 20
25.9319
 30
0.0
 11
92.8204
 21
31.7335
 31
0.0
  0
LINE
  8
0
 62
     0
 10
92.8204
 20
31.7335
 30
0.0
 11
93.6198
 21
31.7335
 31
0.0
  0
LINE
  8
0
 62
     0
 10
93.6198
 20
31.7335
 30
0.0
 11
93.6198
 21
34.8327
 31
0.0
  0
LINE
  8
0
 62
     0
 10
93.6198
 20
34.8327
 30
0.0
 11
92.8204
 21
34.8327
 31
0.0
  0
LINE
  8
0
 62
     0
 10
92.8204
 20
34.8327
 30
0.0
 11
92.8204
 21
35.8316
 31
0.0
  0
LINE
  8
0
 62
     0
 10
92.8204
 20
35.8316
 30
0.0
 11
78.8211
 21
35.8316
 31
0.0
  0
LINE
  8
0
 62
     0
 10
97.8697
 20
35.8316
 30
0.0
 11
97.8697
 21
34.8327
 31
0.0
  0
LINE
  8
0
 62
     0
 10
97.8697
 20
34.8327
 30
0.0
 11
97.0703
 21
34.8327
 31
0.0
  0
LINE
  8
0
 62
     0
 10
97.0703
 20
34.8327
 30
0.0
 11
97.0703
 21
31.7335
 31
0.0
  0
LINE
  8
0
 62
     0
 10
97.0703
 20
31.7335
 30
0.0
 11
97.8697
 21
31.7335
 31
0.0
  0
LINE
  8
0
 62
     0
 10
97.8697
 20
31.7335
 30
0.0
 11
97.8697
 21
25.9319
 31
0.0
  0
LINE
  8
0
 62
     0
 10
97.8697
 20
25.9319
 30
0.0
 11
97.0703
 21
25.9319
 31
0.0
  0
LINE
  8
0
 62
     0
 10
97.0703
 20
25.9319
 30
0.0
 11
97.0703
 21
22.8327
 31
0.0
  0
LINE
  8
0
 62
     0
 10
97.0703
 20
22.8327
 30
0.0
 11
97.8697
 21
22.8327
 31
0.0
  0
LINE
  8
0
 62
     0
 10
97.8697
 20
22.8327
 30
0.0
 11
97.8697
 21
21.8323
 31
0.0
  0
LINE
  8
0
 62
     0
 10
97.8697
 20
21.8323
 30
0.0
 11
111.869
 21
21.8323
 31
0.0
  0
LINE
  8
0
 62
     0
 10
111.869
 20
21.8323
 30
0.0
 11
111.869
 21
22.8327
 31
0.0
  0
LINE
  8
0
 62
     0
 10
111.869
 20
22.8327
 30
0.0
 11
112.67
 21
22.8327
 31
0.0
  0
LINE
  8
0
 62
     0
 10
112.67
 20
22.8327
 30
0.0
 11
112.67
 21
25.9319
 31
0.0
  0
LINE
  8
0
 62
     0
 10
112.67
 20
25.9319
 30
0.0
 11
111.869
 21
25.9319
 31
0.0
  0
LINE
  8
0
 62
     0
 10
111.869
 20
25.9319
 30
0.0
 11
111.869
 21
31.7335
 31
0.0
  0
LINE
  8
0
 62
     0
 10
111.869
 20
31.7335
 30
0.0
 11
112.67
 21
31.7335
 31
0.0
  0
LINE
  8
0
 62
     0
 10
112.67
 20
31.7335
 30
0.0
 11
112.67
 21
34.8327
 31
0.0
  0
LINE
  8
0
 62
     0
 10
112.67
 20
34.8327
 30
0.0
 11
111.869
 21
34.8327
 31
0.0
  0
LINE
  8
0
 62
     0
 10
111.869
 20
34.8327
 30
0.0
 11
111.869
 21
35.8316
 31
0.0
  0
LINE
  8
0
 62
     0
 10
111.869
 20
35.8316
 30
0.0
 11
97.8697
 21
35.8316
 31
0.0
  0
LINE
  8
0
 62
     0
 10
116.92
 20
35.8316
 30
0.0
 11
116.92
 21
34.8327
 31
0.0
  0
LINE
  8
0
 62
     0
 10
116.92
 20
34.8327
 30
0.0
 11
116.119
 21
34.8327
 31
0.0
  0
LINE
  8
0
 62
     0
 10
116.119
 20
34.8327
 30
0.0
 11
116.119
 21
31.7335
 31
0.0
  0
LINE
  8
0
 62
     0
 10
116.119
 20
31.7335
 30
0.0
 11
116.92
 21
31.7335
 31
0.0
  0
LINE
  8
0
 62
     0
 10
116.92
 20
31.7335
 30
0.0
 11
116.92
 21
25.9319
 31
0.0
  0
LINE
  8
0
 62
     0
 10
116.92
 20
25.9319
 30
0.0
 11
116.119
 21
25.9319
 31
0.0
  0
LINE
  8
0
 62
     0
 10
116.119
 20
25.9319
 30
0.0
 11
116.119
 21
22.8327
 31
0.0
  0
LINE
  8
0
 62
     0
 10
116.119
 20
22.8327
 30
0.0
 11
116.92
 21
22.8327
 31
0.0
  0
LINE
  8
0
 62
     0
 10
116.92
 20
22.8327
 30
0.0
 11
116.92
 21
21.8323
 31
0.0
  0
LINE
  8
0
 62
     0
 10
116.92
 20
21.8323
 30
0.0
 11
130.92
 21
21.8323
 31
0.0
  0
LINE
  8
0
 62
     0
 10
130.92
 20
21.8323
 30
0.0
 11
130.92
 21
22.8327
 31
0.0
  0
LINE
  8
0
 62
     0
 10
130.92
 20
22.8327
 30
0.0
 11
131.721
 21
22.8327
 31
0.0
  0
LINE
  8
0
 62
     0
 10
131.721
 20
22.8327
 30
0.0
 11
131.721
 21
25.9319
 31
0.0
  0
LINE
  8
0
 62
     0
 10
131.721
 20
25.9319
 30
0.0
 11
130.92
 21
25.9319
 31
0.0
  0
LINE
  8
0
 62
     0
 10
130.92
 20
25.9319
 30
0.0
 11
130.92
 21
31.7335
 31
0.0
  0
LINE
  8
0
 62
     0
 10
130.92
 20
31.7335
 30
0.0
 11
131.721
 21
31.7335
 31
0.0
  0
LINE
  8
0
 62
     0
 10
131.721
 20
31.7335
 30
0.0
 11
131.721
 21
34.8327
 31
0.0
  0
LINE
  8
0
 62
     0
 10
131.721
 20
34.8327
 30
0.0
 11
130.92
 21
34.8327
 31
0.0
  0
LINE
  8
0
 62
     0
 10
130.92
 20
34.8327
 30
0.0
 11
130.92
 21
35.8316
 31
0.0
  0
LINE
  8
0
 62
     0
 10
130.92
 20
35.8316
 30
0.0
 11
116.92
 21
35.8316
 31
0.0
  0
LINE
  8
0
 62
     0
 10
9.11987
 20
54.4572
 30
0.0
 11
9.11987
 21
53.6317
 31
0.0
  0
LINE
  8
0
 62
     0
 10
9.11987
 20
53.6317
 30
0.0
 11
2.85116
 21
53.6317
 31
0.0
  0
LINE
  8
0
 62
     0
 10
2.85116
 20
53.6317
 30
0.0
 11
2.85116
 21
51.9081
 31
0.0
  0
LINE
  8
0
 62
     0
 10
2.85116
 20
51.9081
 30
0.0
 11
1.87
 21
51.9081
 31
0.0
  0
LINE
  8
0
 62
     0
 10
1.87
 20
51.9081
 30
0.0
 11
1.87
 21
48.6075
 31
0.0
  0
LINE
  8
0
 62
     0
 10
1.87
 20
48.6075
 30
0.0
 11
2.85116
 21
48.6075
 31
0.0
  0
LINE
  8
0
 62
     0
 10
2.85116
 20
48.6075
 30
0.0
 11
2.85116
 21
46.8824
 31
0.0
  0
LINE
  8
0
 62
     0
 10
2.85116
 20
46.8824
 30
0.0
 11
7.32014
 21
46.8824
 31
0.0
  0
LINE
  8
0
 62
     0
 10
7.32014
 20
46.8824
 30
0.0
 11
7.32014
 21
45.3566
 31
0.0
  0
LINE
  8
0
 62
     0
 10
7.32014
 20
45.3566
 30
0.0
 11
6.7207
 21
45.3566
 31
0.0
  0
LINE
  8
0
 62
     0
 10
6.7207
 20
45.3566
 30
0.0
 11
6.7207
 21
46.1574
 31
0.0
  0
LINE
  8
0
 62
     0
 10
6.7207
 20
46.1574
 30
0.0
 11
3.6201
 21
46.1574
 31
0.0
  0
LINE
  8
0
 62
     0
 10
3.6201
 20
46.1574
 30
0.0
 11
3.6201
 21
45.3566
 31
0.0
  0
LINE
  8
0
 62
     0
 10
3.6201
 20
45.3566
 30
0.0
 11
2.62103
 21
45.3566
 31
0.0
  0
LINE
  8
0
 62
     0
 10
2.62103
 20
45.3566
 30
0.0
 11
2.62103
 21
31.3573
 31
0.0
  0
LINE
  8
0
 62
     0
 10
2.62103
 20
31.3573
 30
0.0
 11
3.6201
 21
31.3573
 31
0.0
  0
LINE
  8
0
 62
     0
 10
3.6201
 20
31.3573
 30
0.0
 11
3.6201
 21
30.5566
 31
0.0
  0
LINE
  8
0
 62
     0
 10
3.6201
 20
30.5566
 30
0.0
 11
6.7207
 21
30.5566
 31
0.0
  0
LINE
  8
0
 62
     0
 10
6.7207
 20
30.5566
 30
0.0
 11
6.7207
 21
31.3573
 31
0.0
  0
LINE
  8
0
 62
     0
 10
6.7207
 20
31.3573
 30
0.0
 11
7.32014
 21
31.3573
 31
0.0
  0
LINE
  8
0
 62
     0
 10
7.32014
 20
31.3573
 30
0.0
 11
7.32014
 21
29.8318
 31
0.0
  0
LINE
  8
0
 62
     0
 10
7.32014
 20
29.8318
 30
0.0
 11
2.85116
 21
29.8318
 31
0.0
  0
LINE
  8
0
 62
     0
 10
2.85116
 20
29.8318
 30
0.0
 11
2.85116
 21
28.1079
 31
0.0
  0
LINE
  8
0
 62
     0
 10
2.85116
 20
28.1079
 30
0.0
 11
1.87
 21
28.1079
 31
0.0
  0
LINE
  8
0
 62
     0
 10
1.87
 20
28.1079
 30
0.0
 11
1.87
 21
24.8074
 31
0.0
  0
LINE
  8
0
 62
     0
 10
1.87
 20
24.8074
 30
0.0
 11
2.85116
 21
24.8074
 31
0.0
  0
LINE
  8
0
 62
     0
 10
2.85116
 20
24.8074
 30
0.0
 11
2.85116
 21
23.0821
 31
0.0
  0
LINE
  8
0
 62
     0
 10
2.85116
 20
23.0821
 30
0.0
 11
9.11987
 21
23.0821
 31
0.0
  0
LINE
  8
0
 62
     0
 10
9.11987
 20
23.0821
 30
0.0
 11
9.11987
 21
22.2567
 31
0.0
  0
LINE
  8
0
 62
     0
 10
9.11987
 20
22.2567
 30
0.0
 11
11.92
 21
22.2567
 31
0.0
  0
LINE
  8
0
 62
     0
 10
11.92
 20
22.2567
 30
0.0
 11
11.92
 21
23.0821
 31
0.0
  0
LINE
  8
0
 62
     0
 10
11.92
 20
23.0821
 30
0.0
 11
15.1501
 21
23.0821
 31
0.0
  0
LINE
  8
0
 62
     0
 10
15.1501
 20
23.0821
 30
0.0
 11
15.1501
 21
24.8074
 31
0.0
  0
LINE
  8
0
 62
     0
 10
15.1501
 20
24.8074
 30
0.0
 11
16.0707
 21
24.8074
 31
0.0
  0
LINE
  8
0
 62
     0
 10
16.0707
 20
24.8074
 30
0.0
 11
16.0707
 21
28.1079
 31
0.0
  0
LINE
  8
0
 62
     0
 10
16.0707
 20
28.1079
 30
0.0
 11
15.1501
 21
28.1079
 31
0.0
  0
LINE
  8
0
 62
     0
 10
15.1501
 20
28.1079
 30
0.0
 11
15.1501
 21
29.8318
 31
0.0
  0
LINE
  8
0
 62
     0
 10
15.1501
 20
29.8318
 30
0.0
 11
11.92
 21
29.8318
 31
0.0
  0
LINE
  8
0
 62
     0
 10
11.92
 20
29.8318
 30
0.0
 11
11.92
 21
31.3573
 31
0.0
  0
LINE
  8
0
 62
     0
 10
11.92
 20
31.3573
 30
0.0
 11
12.5209
 21
31.3573
 31
0.0
  0
LINE
  8
0
 62
     0
 10
12.5209
 20
31.3573
 30
0.0
 11
12.5209
 21
30.5566
 31
0.0
  0
LINE
  8
0
 62
     0
 10
12.5209
 20
30.5566
 30
0.0
 11
15.62
 21
30.5566
 31
0.0
  0
LINE
  8
0
 62
     0
 10
15.62
 20
30.5566
 30
0.0
 11
15.62
 21
31.3573
 31
0.0
  0
LINE
  8
0
 62
     0
 10
15.62
 20
31.3573
 30
0.0
 11
16.6205
 21
31.3573
 31
0.0
  0
LINE
  8
0
 62
     0
 10
16.6205
 20
31.3573
 30
0.0
 11
16.6205
 21
45.3566
 31
0.0
  0
LINE
  8
0
 62
     0
 10
16.6205
 20
45.3566
 30
0.0
 11
15.62
 21
45.3566
 31
0.0
  0
LINE
  8
0
 62
     0
 10
15.62
 20
45.3566
 30
0.0
 11
15.62
 21
46.1574
 31
0.0
  0
LINE
  8
0
 62
     0
 10
15.62
 20
46.1574
 30
0.0
 11
12.5209
 21
46.1574
 31
0.0
  0
LINE
  8
0
 62
     0
 10
12.5209
 20
46.1574
 30
0.0
 11
12.5209
 21
45.3566
 31
0.0
  0
LINE
  8
0
 62
     0
 10
12.5209
 20
45.3566
 30
0.0
 11
11.92
 21
45.3566
 31
0.0
  0
LINE
  8
0
 62
     0
 10
11.92
 20
45.3566
 30
0.0
 11
11.92
 21
46.8824
 31
0.0
  0
LINE
  8
0
 62
     0
 10
11.92
 20
46.8824
 30
0.0
 11
15.1501
 21
46.8824
 31
0.0
  0
LINE
  8
0
 62
     0
 10
15.1501
 20
46.8824
 30
0.0
 11
15.1501
 21
48.6075
 31
0.0
  0
LINE
  8
0
 62
     0
 10
15.1501
 20
48.6075
 30
0.0
 11
16.0707
 21
48.6075
 31
0.0
  0
LINE
  8
0
 62
     0
 10
16.0707
 20
48.6075
 30
0.0
 11
16.0707
 21
51.9081
 31
0.0
  0
LINE
  8
0
 62
     0
 10
16.0707
 20
51.9081
 30
0.0
 11
15.1501
 21
51.9081
 31
0.0
  0
LINE
  8
0
 62
     0
 10
15.1501
 20
51.9081
 30
0.0
 11
15.1501
 21
53.6317
 31
0.0
  0
LINE
  8
0
 62
     0
 10
15.1501
 20
53.6317
 30
0.0
 11
11.92
 21
53.6317
 31
0.0
  0
LINE
  8
0
 62
     0
 10
11.92
 20
53.6317
 30
0.0
 11
11.92
 21
54.4572
 31
0.0
  0
LINE
  8
0
 62
     0
 10
11.92
 20
54.4572
 30
0.0
 11
9.11987
 21
54.4572
 31
0.0
  0
LINE
  8
0
 62
     0
 10
142.47
 20
54.4572
 30
0.0
 11
142.47
 21
53.6317
 31
0.0
  0
LINE
  8
0
 62
     0
 10
142.47
 20
53.6317
 30
0.0
 11
136.201
 21
53.6317
 31
0.0
  0
LINE
  8
0
 62
     0
 10
136.201
 20
53.6317
 30
0.0
 11
136.201
 21
51.9081
 31
0.0
  0
LINE
  8
0
 62
     0
 10
136.201
 20
51.9081
 30
0.0
 11
135.22
 21
51.9081
 31
0.0
  0
LINE
  8
0
 62
     0
 10
135.22
 20
51.9081
 30
0.0
 11
135.22
 21
48.6075
 31
0.0
  0
LINE
  8
0
 62
     0
 10
135.22
 20
48.6075
 30
0.0
 11
136.201
 21
48.6075
 31
0.0
  0
LINE
  8
0
 62
     0
 10
136.201
 20
48.6075
 30
0.0
 11
136.201
 21
46.8824
 31
0.0
  0
LINE
  8
0
 62
     0
 10
136.201
 20
46.8824
 30
0.0
 11
140.67
 21
46.8824
 31
0.0
  0
LINE
  8
0
 62
     0
 10
140.67
 20
46.8824
 30
0.0
 11
140.67
 21
45.3566
 31
0.0
  0
LINE
  8
0
 62
     0
 10
140.67
 20
45.3566
 30
0.0
 11
140.071
 21
45.3566
 31
0.0
  0
LINE
  8
0
 62
     0
 10
140.071
 20
45.3566
 30
0.0
 11
140.071
 21
46.1574
 31
0.0
  0
LINE
  8
0
 62
     0
 10
140.071
 20
46.1574
 30
0.0
 11
136.97
 21
46.1574
 31
0.0
  0
LINE
  8
0
 62
     0
 10
136.97
 20
46.1574
 30
0.0
 11
136.97
 21
45.3566
 31
0.0
  0
LINE
  8
0
 62
     0
 10
136.97
 20
45.3566
 30
0.0
 11
135.971
 21
45.3566
 31
0.0
  0
LINE
  8
0
 62
     0
 10
135.971
 20
45.3566
 30
0.0
 11
135.971
 21
31.3573
 31
0.0
  0
LINE
  8
0
 62
     0
 10
135.971
 20
31.3573
 30
0.0
 11
136.97
 21
31.3573
 31
0.0
  0
LINE
  8
0
 62
     0
 10
136.97
 20
31.3573
 30
0.0
 11
136.97
 21
30.5566
 31
0.0
  0
LINE
  8
0
 62
     0
 10
136.97
 20
30.5566
 30
0.0
 11
140.071
 21
30.5566
 31
0.0
  0
LINE
  8
0
 62
     0
 10
140.071
 20
30.5566
 30
0.0
 11
140.071
 21
31.3573
 31
0.0
  0
LINE
  8
0
 62
     0
 10
140.071
 20
31.3573
 30
0.0
 11
140.67
 21
31.3573
 31
0.0
  0
LINE
  8
0
 62
     0
 10
140.67
 20
31.3573
 30
0.0
 11
140.67
 21
29.8318
 31
0.0
  0
LINE
  8
0
 62
     0
 10
140.67
 20
29.8318
 30
0.0
 11
136.201
 21
29.8318
 31
0.0
  0
LINE
  8
0
 62
     0
 10
136.201
 20
29.8318
 30
0.0
 11
136.201
 21
28.1079
 31
0.0
  0
LINE
  8
0
 62
     0
 10
136.201
 20
28.1079
 30
0.0
 11
135.22
 21
28.1079
 31
0.0
  0
LINE
  8
0
 62
     0
 10
135.22
 20
28.1079
 30
0.0
 11
135.22
 21
24.8074
 31
0.0
  0
LINE
  8
0
 62
     0
 10
135.22
 20
24.8074
 30
0.0
 11
136.201
 21
24.8074
 31
0.0
  0
LINE
  8
0
 62
     0
 10
136.201
 20
24.8074
 30
0.0
 11
136.201
 21
23.0821
 31
0.0
  0
LINE
  8
0
 62
     0
 10
136.201
 20
23.0821
 30
0.0
 11
142.47
 21
23.0821
 31
0.0
  0
LINE
  8
0
 62
     0
 10
142.47
 20
23.0821
 30
0.0
 11
142.47
 21
22.2567
 31
0.0
  0
LINE
  8
0
 62
     0
 10
142.47
 20
22.2567
 30
0.0
 11
145.27
 21
22.2567
 31
0.0
  0
LINE
  8
0
 62
     0
 10
145.27
 20
22.2567
 30
0.0
 11
145.27
 21
23.0821
 31
0.0
  0
LINE
  8
0
 62
     0
 10
145.27
 20
23.0821
 30
0.0
 11
148.5
 21
23.0821
 31
0.0
  0
LINE
  8
0
 62
     0
 10
148.5
 20
23.0821
 30
0.0
 11
148.5
 21
24.8074
 31
0.0
  0
LINE
  8
0
 62
     0
 10
148.5
 20
24.8074
 30
0.0
 11
149.421
 21
24.8074
 31
0.0
  0
LINE
  8
0
 62
     0
 10
149.421
 20
24.8074
 30
0.0
 11
149.421
 21
28.1079
 31
0.0
  0
LINE
  8
0
 62
     0
 10
149.421
 20
28.1079
 30
0.0
 11
148.5
 21
28.1079
 31
0.0
  0
LINE
  8
0
 62
     0
 10
148.5
 20
28.1079
 30
0.0
 11
148.5
 21
29.8318
 31
0.0
  0
LINE
  8
0
 62
     0
 10
148.5
 20
29.8318
 30
0.0
 11
145.27
 21
29.8318
 31
0.0
  0
LINE
  8
0
 62
     0
 10
145.27
 20
29.8318
 30
0.0
 11
145.27
 21
31.3573
 31
0.0
  0
LINE
  8
0
 62
     0
 10
145.27
 20
31.3573
 30
0.0
 11
145.871
 21
31.3573
 31
0.0
  0
LINE
  8
0
 62
     0
 10
145.871
 20
31.3573
 30
0.0
 11
145.871
 21
30.5566
 31
0.0
  0
LINE
  8
0
 62
     0
 10
145.871
 20
30.5566
 30
0.0
 11
148.97
 21
30.5566
 31
0.0
  0
LINE
  8
0
 62
     0
 10
148.97
 20
30.5566
 30
0.0
 11
148.97
 21
31.3573
 31
0.0
  0
LINE
  8
0
 62
     0
 10
148.97
 20
31.3573
 30
0.0
 11
149.97
 21
31.3573
 31
0.0
  0
LINE
  8
0
 62
     0
 10
149.97
 20
31.3573
 30
0.0
 11
149.97
 21
45.3566
 31
0.0
  0
LINE
  8
0
 62
     0
 10
149.97
 20
45.3566
 30
0.0
 11
148.97
 21
45.3566
 31
0.0
  0
LINE
  8
0
 62
     0
 10
148.97
 20
45.3566
 30
0.0
 11
148.97
 21
46.1574
 31
0.0
  0
LINE
  8
0
 62
     0
 10
148.97
 20
46.1574
 30
0.0
 11
145.871
 21
46.1574
 31
0.0
  0
LINE
  8
0
 62
     0
 10
145.871
 20
46.1574
 30
0.0
 11
145.871
 21
45.3566
 31
0.0
  0
LINE
  8
0
 62
     0
 10
145.871
 20
45.3566
 30
0.0
 11
145.27
 21
45.3566
 31
0.0
  0
LINE
  8
0
 62
     0
 10
145.27
 20
45.3566
 30
0.0
 11
145.27
 21
46.8824
 31
0.0
  0
LINE
  8
0
 62
     0
 10
145.27
 20
46.8824
 30
0.0
 11
148.5
 21
46.8824
 31
0.0
  0
LINE
  8
0
 62
     0
 10
148.5
 20
46.8824
 30
0.0
 11
148.5
 21
48.6075
 31
0.0
  0
LINE
  8
0
 62
     0
 10
148.5
 20
48.6075
 30
0.0
 11
149.421
 21
48.6075
 31
0.0
  0
LINE
  8
0
 62
     0
 10
149.421
 20
48.6075
 30
0.0
 11
149.421
 21
51.9081
 31
0.0
  0
LINE
  8
0
 62
     0
 10
149.421
 20
51.9081
 30
0.0
 11
148.5
 21
51.9081
 31
0.0
  0
LINE
  8
0
 62
     0
 10
148.5
 20
51.9081
 30
0.0
 11
148.5
 21
53.6317
 31
0.0
  0
LINE
  8
0
 62
     0
 10
148.5
 20
53.6317
 30
0.0
 11
145.27
 21
53.6317
 31
0.0
  0
LINE
  8
0
 62
     0
 10
145.27
 20
53.6317
 30
0.0
 11
145.27
 21
54.4572
 31
0.0
  0
LINE
  8
0
 62
     0
 10
145.27
 20
54.4572
 30
0.0
 11
142.47
 21
54.4572
 31
0.0
  0
LINE
  8
0
 62
     0
 10
21.671
 20
54.8816
 30
0.0
 11
21.671
 21
53.8826
 31
0.0
  0
LINE
  8
0
 62
     0
 10
21.671
 20
53.8826
 30
0.0
 11
20.8704
 21
53.8826
 31
0.0
  0
LINE
  8
0
 62
     0
 10
20.8704
 20
53.8826
 30
0.0
 11
20.8704
 21
50.782
 31
0.0
  0
LINE
  8
0
 62
     0
 10
20.8704
 20
50.782
 30
0.0
 11
21.671
 21
50.782
 31
0.0
  0
LINE
  8
0
 62
     0
 10
21.671
 20
50.782
 30
0.0
 11
21.671
 21
44.982
 31
0.0
  0
LINE
  8
0
 62
     0
 10
21.671
 20
44.982
 30
0.0
 11
20.8704
 21
44.982
 31
0.0
  0
LINE
  8
0
 62
     0
 10
20.8704
 20
44.982
 30
0.0
 11
20.8704
 21
41.8828
 31
0.0
  0
LINE
  8
0
 62
     0
 10
20.8704
 20
41.8828
 30
0.0
 11
21.671
 21
41.8828
 31
0.0
  0
LINE
  8
0
 62
     0
 10
21.671
 20
41.8828
 30
0.0
 11
21.671
 21
40.8824
 31
0.0
  0
LINE
  8
0
 62
     0
 10
21.671
 20
40.8824
 30
0.0
 11
35.6704
 21
40.8824
 31
0.0
  0
LINE
  8
0
 62
     0
 10
35.6704
 20
40.8824
 30
0.0
 11
35.6704
 21
41.8828
 31
0.0
  0
LINE
  8
0
 62
     0
 10
35.6704
 20
41.8828
 30
0.0
 11
36.4712
 21
41.8828
 31
0.0
  0
LINE
  8
0
 62
     0
 10
36.4712
 20
41.8828
 30
0.0
 11
36.4712
 21
44.982
 31
0.0
  0
LINE
  8
0
 62
     0
 10
36.4712
 20
44.982
 30
0.0
 11
35.6704
 21
44.982
 31
0.0
  0
LINE
  8
0
 62
     0
 10
35.6704
 20
44.982
 30
0.0
 11
35.6704
 21
50.782
 31
0.0
  0
LINE
  8
0
 62
     0
 10
35.6704
 20
50.782
 30
0.0
 11
36.4712
 21
50.782
 31
0.0
  0
LINE
  8
0
 62
     0
 10
36.4712
 20
50.782
 30
0.0
 11
36.4712
 21
53.8826
 31
0.0
  0
LINE
  8
0
 62
     0
 10
36.4712
 20
53.8826
 30
0.0
 11
35.6704
 21
53.8826
 31
0.0
  0
LINE
  8
0
 62
     0
 10
35.6704
 20
53.8826
 30
0.0
 11
35.6704
 21
54.8816
 31
0.0
  0
LINE
  8
0
 62
     0
 10
35.6704
 20
54.8816
 30
0.0
 11
21.671
 21
54.8816
 31
0.0
  0
LINE
  8
0
 62
     0
 10
40.7211
 20
54.8816
 30
0.0
 11
40.7211
 21
53.8826
 31
0.0
  0
LINE
  8
0
 62
     0
 10
40.7211
 20
53.8826
 30
0.0
 11
39.9203
 21
53.8826
 31
0.0
  0
LINE
  8
0
 62
     0
 10
39.9203
 20
53.8826
 30
0.0
 11
39.9203
 21
50.782
 31
0.0
  0
LINE
  8
0
 62
     0
 10
39.9203
 20
50.782
 30
0.0
 11
40.7211
 21
50.782
 31
0.0
  0
LINE
  8
0
 62
     0
 10
40.7211
 20
50.782
 30
0.0
 11
40.7211
 21
44.982
 31
0.0
  0
LINE
  8
0
 62
     0
 10
40.7211
 20
44.982
 30
0.0
 11
39.9203
 21
44.982
 31
0.0
  0
LINE
  8
0
 62
     0
 10
39.9203
 20
44.982
 30
0.0
 11
39.9203
 21
41.8828
 31
0.0
  0
LINE
  8
0
 62
     0
 10
39.9203
 20
41.8828
 30
0.0
 11
40.7211
 21
41.8828
 31
0.0
  0
LINE
  8
0
 62
     0
 10
40.7211
 20
41.8828
 30
0.0
 11
40.7211
 21
40.8824
 31
0.0
  0
LINE
  8
0
 62
     0
 10
40.7211
 20
40.8824
 30
0.0
 11
54.7204
 21
40.8824
 31
0.0
  0
LINE
  8
0
 62
     0
 10
54.7204
 20
40.8824
 30
0.0
 11
54.7204
 21
41.8828
 31
0.0
  0
LINE
  8
0
 62
     0
 10
54.7204
 20
41.8828
 30
0.0
 11
55.5212
 21
41.8828
 31
0.0
  0
LINE
  8
0
 62
     0
 10
55.5212
 20
41.8828
 30
0.0
 11
55.5212
 21
44.982
 31
0.0
  0
LINE
  8
0
 62
     0
 10
55.5212
 20
44.982
 30
0.0
 11
54.7204
 21
44.982
 31
0.0
  0
LINE
  8
0
 62
     0
 10
54.7204
 20
44.982
 30
0.0
 11
54.7204
 21
50.782
 31
0.0
  0
LINE
  8
0
 62
     0
 10
54.7204
 20
50.782
 30
0.0
 11
55.5212
 21
50.782
 31
0.0
  0
LINE
  8
0
 62
     0
 10
55.5212
 20
50.782
 30
0.0
 11
55.5212
 21
53.8826
 31
0.0
  0
LINE
  8
0
 62
     0
 10
55.5212
 20
53.8826
 30
0.0
 11
54.7204
 21
53.8826
 31
0.0
  0
LINE
  8
0
 62
     0
 10
54.7204
 20
53.8826
 30
0.0
 11
54.7204
 21
54.8816
 31
0.0
  0
LINE
  8
0
 62
     0
 10
54.7204
 20
54.8816
 30
0.0
 11
40.7211
 21
54.8816
 31
0.0
  0
LINE
  8
0
 62
     0
 10
59.7711
 20
54.8816
 30
0.0
 11
59.7711
 21
53.8826
 31
0.0
  0
LINE
  8
0
 62
     0
 10
59.7711
 20
53.8826
 30
0.0
 11
58.9703
 21
53.8826
 31
0.0
  0
LINE
  8
0
 62
     0
 10
58.9703
 20
53.8826
 30
0.0
 11
58.9703
 21
50.782
 31
0.0
  0
LINE
  8
0
 62
     0
 10
58.9703
 20
50.782
 30
0.0
 11
59.7711
 21
50.782
 31
0.0
  0
LINE
  8
0
 62
     0
 10
59.7711
 20
50.782
 30
0.0
 11
59.7711
 21
44.982
 31
0.0
  0
LINE
  8
0
 62
     0
 10
59.7711
 20
44.982
 30
0.0
 11
58.9703
 21
44.982
 31
0.0
  0
LINE
  8
0
 62
     0
 10
58.9703
 20
44.982
 30
0.0
 11
58.9703
 21
41.8828
 31
0.0
  0
LINE
  8
0
 62
     0
 10
58.9703
 20
41.8828
 30
0.0
 11
59.7711
 21
41.8828
 31
0.0
  0
LINE
  8
0
 62
     0
 10
59.7711
 20
41.8828
 30
0.0
 11
59.7711
 21
40.8824
 31
0.0
  0
LINE
  8
0
 62
     0
 10
59.7711
 20
40.8824
 30
0.0
 11
73.7704
 21
40.8824
 31
0.0
  0
LINE
  8
0
 62
     0
 10
73.7704
 20
40.8824
 30
0.0
 11
73.7704
 21
41.8828
 31
0.0
  0
LINE
  8
0
 62
     0
 10
73.7704
 20
41.8828
 30
0.0
 11
74.5712
 21
41.8828
 31
0.0
  0
LINE
  8
0
 62
     0
 10
74.5712
 20
41.8828
 30
0.0
 11
74.5712
 21
44.982
 31
0.0
  0
LINE
  8
0
 62
     0
 10
74.5712
 20
44.982
 30
0.0
 11
73.7704
 21
44.982
 31
0.0
  0
LINE
  8
0
 62
     0
 10
73.7704
 20
44.982
 30
0.0
 11
73.7704
 21
50.782
 31
0.0
  0
LINE
  8
0
 62
     0
 10
73.7704
 20
50.782
 30
0.0
 11
74.5712
 21
50.782
 31
0.0
  0
LINE
  8
0
 62
     0
 10
74.5712
 20
50.782
 30
0.0
 11
74.5712
 21
53.8826
 31
0.0
  0
LINE
  8
0
 62
     0
 10
74.5712
 20
53.8826
 30
0.0
 11
73.7704
 21
53.8826
 31
0.0
  0
LINE
  8
0
 62
     0
 10
73.7704
 20
53.8826
 30
0.0
 11
73.7704
 21
54.8816
 31
0.0
  0
LINE
  8
0
 62
     0
 10
73.7704
 20
54.8816
 30
0.0
 11
59.7711
 21
54.8816
 31
0.0
  0
LINE
  8
0
 62
     0
 10
78.8211
 20
54.8816
 30
0.0
 11
78.8211
 21
53.8826
 31
0.0
  0
LINE
  8
0
 62
     0
 10
78.8211
 20
53.8826
 30
0.0
 11
78.0203
 21
53.8826
 31
0.0
  0
LINE
  8
0
 62
     0
 10
78.0203
 20
53.8826
 30
0.0
 11
78.0203
 21
50.782
 31
0.0
  0
LINE
  8
0
 62
     0
 10
78.0203
 20
50.782
 30
0.0
 11
78.8211
 21
50.782
 31
0.0
  0
LINE
  8
0
 62
     0
 10
78.8211
 20
50.782
 30
0.0
 11
78.8211
 21
44.982
 31
0.0
  0
LINE
  8
0
 62
     0
 10
78.8211
 20
44.982
 30
0.0
 11
78.0203
 21
44.982
 31
0.0
  0
LINE
  8
0
 62
     0
 10
78.0203
 20
44.982
 30
0.0
 11
78.0203
 21
41.8828
 31
0.0
  0
LINE
  8
0
 62
     0
 10
78.0203
 20
41.8828
 30
0.0
 11
78.8211
 21
41.8828
 31
0.0
  0
LINE
  8
0
 62
     0
 10
78.8211
 20
41.8828
 30
0.0
 11
78.8211
 21
40.8824
 31
0.0
  0
LINE
  8
0
 62
     0
 10
78.8211
 20
40.8824
 30
0.0
 11
92.8204
 21
40.8824
 31
0.0
  0
LINE
  8
0
 62
     0
 10
92.8204
 20
40.8824
 30
0.0
 11
92.8204
 21
41.8828
 31
0.0
  0
LINE
  8
0
 62
     0
 10
92.8204
 20
41.8828
 30
0.0
 11
93.6198
 21
41.8828
 31
0.0
  0
LINE
  8
0
 62
     0
 10
93.6198
 20
41.8828
 30
0.0
 11
93.6198
 21
44.982
 31
0.0
  0
LINE
  8
0
 62
     0
 10
93.6198
 20
44.982
 30
0.0
 11
92.8204
 21
44.982
 31
0.0
  0
LINE
  8
0
 62
     0
 10
92.8204
 20
44.982
 30
0.0
 11
92.8204
 21
50.782
 31
0.0
  0
LINE
  8
0
 62
     0
 10
92.8204
 20
50.782
 30
0.0
 11
93.6198
 21
50.782
 31
0.0
  0
LINE
  8
0
 62
     0
 10
93.6198
 20
50.782
 30
0.0
 11
93.6198
 21
53.8826
 31
0.0
  0
LINE
  8
0
 62
     0
 10
93.6198
 20
53.8826
 30
0.0
 11
92.8204
 21
53.8826
 31
0.0
  0
LINE
  8
0
 62
     0
 10
92.8204
 20
53.8826
 30
0.0
 11
92.8204
 21
54.8816
 31
0.0
  0
LINE
  8
0
 62
     0
 10
92.8204
 20
54.8816
 30
0.0
 11
78.8211
 21
54.8816
 31
0.0
  0
LINE
  8
0
 62
     0
 10
97.8697
 20
54.8816
 30
0.0
 11
97.8697
 21
53.8826
 31
0.0
  0
LINE
  8
0
 62
     0
 10
97.8697
 20
53.8826
 30
0.0
 11
97.0703
 21
53.8826
 31
0.0
  0
LINE
  8
0
 62
     0
 10
97.0703
 20
53.8826
 30
0.0
 11
97.0703
 21
50.782
 31
0.0
  0
LINE
  8
0
 62
     0
 10
97.0703
 20
50.782
 30
0.0
 11
97.8697
 21
50.782
 31
0.0
  0
LINE
  8
0
 62
     0
 10
97.8697
 20
50.782
 30
0.0
 11
97.8697
 21
44.982
 31
0.0
  0
LINE
  8
0
 62
     0
 10
97.8697
 20
44.982
 30
0.0
 11
97.0703
 21
44.982
 31
0.0
  0
LINE
  8
0
 62
     0
 10
97.0703
 20
44.982
 30
0.0
 11
97.0703
 21
41.8828
 31
0.0
  0
LINE
  8
0
 62
     0
 10
97.0703
 20
41.8828
 30
0.0
 11
97.8697
 21
41.8828
 31
0.0
  0
LINE
  8
0
 62
     0
 10
97.8697
 20
41.8828
 30
0.0
 11
97.8697
 21
40.8824
 31
0.0
  0
LINE
  8
0
 62
     0
 10
97.8697
 20
40.8824
 30
0.0
 11
111.869
 21
40.8824
 31
0.0
  0
LINE
  8
0
 62
     0
 10
111.869
 20
40.8824
 30
0.0
 11
111.869
 21
41.8828
 31
0.0
  0
LINE
  8
0
 62
     0
 10
111.869
 20
41.8828
 30
0.0
 11
112.67
 21
41.8828
 31
0.0
  0
LINE
  8
0
 62
     0
 10
112.67
 20
41.8828
 30
0.0
 11
112.67
 21
44.982
 31
0.0
  0
LINE
  8
0
 62
     0
 10
112.67
 20
44.982
 30
0.0
 11
111.869
 21
44.982
 31
0.0
  0
LINE
  8
0
 62
     0
 10
111.869
 20
44.982
 30
0.0
 11
111.869
 21
50.782
 31
0.0
  0
LINE
  8
0
 62
     0
 10
111.869
 20
50.782
 30
0.0
 11
112.67
 21
50.782
 31
0.0
  0
LINE
  8
0
 62
     0
 10
112.67
 20
50.782
 30
0.0
 11
112.67
 21
53.8826
 31
0.0
  0
LINE
  8
0
 62
     0
 10
112.67
 20
53.8826
 30
0.0
 11
111.869
 21
53.8826
 31
0.0
  0
LINE
  8
0
 62
     0
 10
111.869
 20
53.8826
 30
0.0
 11
111.869
 21
54.8816
 31
0.0
  0
LINE
  8
0
 62
     0
 10
111.869
 20
54.8816
 30
0.0
 11
97.8697
 21
54.8816
 31
0.0
  0
LINE
  8
0
 62
     0
 10
116.92
 20
54.8816
 30
0.0
 11
116.92
 21
53.8826
 31
0.0
  0
LINE
  8
0
 62
     0
 10
116.92
 20
53.8826
 30
0.0
 11
116.119
 21
53.8826
 31
0.0
  0
LINE
  8
0
 62
     0
 10
116.119
 20
53.8826
 30
0.0
 11
116.119
 21
50.782
 31
0.0
  0
LINE
  8
0
 62
     0
 10
116.119
 20
50.782
 30
0.0
 11
116.92
 21
50.782
 31
0.0
  0
LINE
  8
0
 62
     0
 10
116.92
 20
50.782
 30
0.0
 11
116.92
 21
44.982
 31
0.0
  0
LINE
  8
0
 62
     0
 10
116.92
 20
44.982
 30
0.0
 11
116.119
 21
44.982
 31
0.0
  0
LINE
  8
0
 62
     0
 10
116.119
 20
44.982
 30
0.0
 11
116.119
 21
41.8828
 31
0.0
  0
LINE
  8
0
 62
     0
 10
116.119
 20
41.8828
 30
0.0
 11
116.92
 21
41.8828
 31
0.0
  0
LINE
  8
0
 62
     0
 10
116.92
 20
41.8828
 30
0.0
 11
116.92
 21
40.8824
 31
0.0
  0
LINE
  8
0
 62
     0
 10
116.92
 20
40.8824
 30
0.0
 11
130.92
 21
40.8824
 31
0.0
  0
LINE
  8
0
 62
     0
 10
130.92
 20
40.8824
 30
0.0
 11
130.92
 21
41.8828
 31
0.0
  0
LINE
  8
0
 62
     0
 10
130.92
 20
41.8828
 30
0.0
 11
131.721
 21
41.8828
 31
0.0
  0
LINE
  8
0
 62
     0
 10
131.721
 20
41.8828
 30
0.0
 11
131.721
 21
44.982
 31
0.0
  0
LINE
  8
0
 62
     0
 10
131.721
 20
44.982
 30
0.0
 11
130.92
 21
44.982
 31
0.0
  0
LINE
  8
0
 62
     0
 10
130.92
 20
44.982
 30
0.0
 11
130.92
 21
50.782
 31
0.0
  0
LINE
  8
0
 62
     0
 10
130.92
 20
50.782
 30
0.0
 11
131.721
 21
50.782
 31
0.0
  0
LINE
  8
0
 62
     0
 10
131.721
 20
50.782
 30
0.0
 11
131.721
 21
53.8826
 31
0.0
  0
LINE
  8
0
 62
     0
 10
131.721
 20
53.8826
 30
0.0
 11
130.92
 21
53.8826
 31
0.0
  0
LINE
  8
0
 62
     0
 10
130.92
 20
53.8826
 30
0.0
 11
130.92
 21
54.8816
 31
0.0
  0
LINE
  8
0
 62
     0
 10
130.92
 20
54.8816
 30
0.0
 11
116.92
 21
54.8816
 31
0.0
  0
LINE
  8
0
 62
     0
 10
2.62103
 20
73.9316
 30
0.0
 11
2.62103
 21
72.9326
 31
0.0
  0
LINE
  8
0
 62
     0
 10
2.62103
 20
72.9326
 30
0.0
 11
1.82039
 21
72.9326
 31
0.0
  0
LINE
  8
0
 62
     0
 10
1.82039
 20
72.9326
 30
0.0
 11
1.82039
 21
69.832
 31
0.0
  0
LINE
  8
0
 62
     0
 10
1.82039
 20
69.832
 30
0.0
 11
2.62103
 21
69.832
 31
0.0
  0
LINE
  8
0
 62
     0
 10
2.62103
 20
69.832
 30
0.0
 11
2.62103
 21
64.032
 31
0.0
  0
LINE
  8
0
 62
     0
 10
2.62103
 20
64.032
 30
0.0
 11
1.82039
 21
64.032
 31
0.0
  0
LINE
  8
0
 62
     0
 10
1.82039
 20
64.032
 30
0.0
 11
1.82039
 21
60.9328
 31
0.0
  0
LINE
  8
0
 62
     0
 10
1.82039
 20
60.9328
 30
0.0
 11
2.62103
 21
60.9328
 31
0.0
  0
LINE
  8
0
 62
     0
 10
2.62103
 20
60.9328
 30
0.0
 11
2.62103
 21
59.9324
 31
0.0
  0
LINE
  8
0
 62
     0
 10
2.62103
 20
59.9324
 30
0.0
 11
16.6205
 21
59.9324
 31
0.0
  0
LINE
  8
0
 62
     0
 10
16.6205
 20
59.9324
 30
0.0
 11
16.6205
 21
60.9328
 31
0.0
  0
LINE
  8
0
 62
     0
 10
16.6205
 20
60.9328
 30
0.0
 11
17.4212
 21
60.9328
 31
0.0
  0
LINE
  8
0
 62
     0
 10
17.4212
 20
60.9328
 30
0.0
 11
17.4212
 21
64.032
 31
0.0
  0
LINE
  8
0
 62
     0
 10
17.4212
 20
64.032
 30
0.0
 11
16.6205
 21
64.032
 31
0.0
  0
LINE
  8
0
 62
     0
 10
16.6205
 20
64.032
 30
0.0
 11
16.6205
 21
69.832
 31
0.0
  0
LINE
  8
0
 62
     0
 10
16.6205
 20
69.832
 30
0.0
 11
17.4212
 21
69.832
 31
0.0
  0
LINE
  8
0
 62
     0
 10
17.4212
 20
69.832
 30
0.0
 11
17.4212
 21
72.9326
 31
0.0
  0
LINE
  8
0
 62
     0
 10
17.4212
 20
72.9326
 30
0.0
 11
16.6205
 21
72.9326
 31
0.0
  0
LINE
  8
0
 62
     0
 10
16.6205
 20
72.9326
 30
0.0
 11
16.6205
 21
73.9316
 31
0.0
  0
LINE
  8
0
 62
     0
 10
16.6205
 20
73.9316
 30
0.0
 11
2.62103
 21
73.9316
 31
0.0
  0
LINE
  8
0
 62
     0
 10
21.671
 20
73.9316
 30
0.0
 11
21.671
 21
72.9326
 31
0.0
  0
LINE
  8
0
 62
     0
 10
21.671
 20
72.9326
 30
0.0
 11
20.8704
 21
72.9326
 31
0.0
  0
LINE
  8
0
 62
     0
 10
20.8704
 20
72.9326
 30
0.0
 11
20.8704
 21
69.832
 31
0.0
  0
LINE
  8
0
 62
     0
 10
20.8704
 20
69.832
 30
0.0
 11
21.671
 21
69.832
 31
0.0
  0
LINE
  8
0
 62
     0
 10
21.671
 20
69.832
 30
0.0
 11
21.671
 21
64.032
 31
0.0
  0
LINE
  8
0
 62
     0
 10
21.671
 20
64.032
 30
0.0
 11
20.8704
 21
64.032
 31
0.0
  0
LINE
  8
0
 62
     0
 10
20.8704
 20
64.032
 30
0.0
 11
20.8704
 21
60.9328
 31
0.0
  0
LINE
  8
0
 62
     0
 10
20.8704
 20
60.9328
 30
0.0
 11
21.671
 21
60.9328
 31
0.0
  0
LINE
  8
0
 62
     0
 10
21.671
 20
60.9328
 30
0.0
 11
21.671
 21
59.9324
 31
0.0
  0
LINE
  8
0
 62
     0
 10
21.671
 20
59.9324
 30
0.0
 11
35.6704
 21
59.9324
 31
0.0
  0
LINE
  8
0
 62
     0
 10
35.6704
 20
59.9324
 30
0.0
 11
35.6704
 21
60.9328
 31
0.0
  0
LINE
  8
0
 62
     0
 10
35.6704
 20
60.9328
 30
0.0
 11
36.4712
 21
60.9328
 31
0.0
  0
LINE
  8
0
 62
     0
 10
36.4712
 20
60.9328
 30
0.0
 11
36.4712
 21
64.032
 31
0.0
  0
LINE
  8
0
 62
     0
 10
36.4712
 20
64.032
 30
0.0
 11
35.6704
 21
64.032
 31
0.0
  0
LINE
  8
0
 62
     0
 10
35.6704
 20
64.032
 30
0.0
 11
35.6704
 21
69.832
 31
0.0
  0
LINE
  8
0
 62
     0
 10
35.6704
 20
69.832
 30
0.0
 11
36.4712
 21
69.832
 31
0.0
  0
LINE
  8
0
 62
     0
 10
36.4712
 20
69.832
 30
0.0
 11
36.4712
 21
72.9326
 31
0.0
  0
LINE
  8
0
 62
     0
 10
36.4712
 20
72.9326
 30
0.0
 11
35.6704
 21
72.9326
 31
0.0
  0
LINE
  8
0
 62
     0
 10
35.6704
 20
72.9326
 30
0.0
 11
35.6704
 21
73.9316
 31
0.0
  0
LINE
  8
0
 62
     0
 10
35.6704
 20
73.9316
 30
0.0
 11
21.671
 21
73.9316
 31
0.0
  0
LINE
  8
0
 62
     0
 10
40.7211
 20
73.9316
 30
0.0
 11
40.7211
 21
72.9326
 31
0.0
  0
LINE
  8
0
 62
     0
 10
40.7211
 20
72.9326
 30
0.0
 11
39.9203
 21
72.9326
 31
0.0
  0
LINE
  8
0
 62
     0
 10
39.9203
 20
72.9326
 30
0.0
 11
39.9203
 21
69.832
 31
0.0
  0
LINE
  8
0
 62
     0
 10
39.9203
 20
69.832
 30
0.0
 11
40.7211
 21
69.832
 31
0.0
  0
LINE
  8
0
 62
     0
 10
40.7211
 20
69.832
 30
0.0
 11
40.7211
 21
64.032
 31
0.0
  0
LINE
  8
0
 62
     0
 10
40.7211
 20
64.032
 30
0.0
 11
39.9203
 21
64.032
 31
0.0
  0
LINE
  8
0
 62
     0
 10
39.9203
 20
64.032
 30
0.0
 11
39.9203
 21
60.9328
 31
0.0
  0
LINE
  8
0
 62
     0
 10
39.9203
 20
60.9328
 30
0.0
 11
40.7211
 21
60.9328
 31
0.0
  0
LINE
  8
0
 62
     0
 10
40.7211
 20
60.9328
 30
0.0
 11
40.7211
 21
59.9324
 31
0.0
  0
LINE
  8
0
 62
     0
 10
40.7211
 20
59.9324
 30
0.0
 11
54.7204
 21
59.9324
 31
0.0
  0
LINE
  8
0
 62
     0
 10
54.7204
 20
59.9324
 30
0.0
 11
54.7204
 21
60.9328
 31
0.0
  0
LINE
  8
0
 62
     0
 10
54.7204
 20
60.9328
 30
0.0
 11
55.5212
 21
60.9328
 31
0.0
  0
LINE
  8
0
 62
     0
 10
55.5212
 20
60.9328
 30
0.0
 11
55.5212
 21
64.032
 31
0.0
  0
LINE
  8
0
 62
     0
 10
55.5212
 20
64.032
 30
0.0
 11
54.7204
 21
64.032
 31
0.0
  0
LINE
  8
0
 62
     0
 10
54.7204
 20
64.032
 30
0.0
 11
54.7204
 21
69.832
 31
0.0
  0
LINE
  8
0
 62
     0
 10
54.7204
 20
69.832
 30
0.0
 11
55.5212
 21
69.832
 31
0.0
  0
LINE
  8
0
 62
     0
 10
55.5212
 20
69.832
 30
0.0
 11
55.5212
 21
72.9326
 31
0.0
  0
LINE
  8
0
 62
     0
 10
55.5212
 20
72.9326
 30
0.0
 11
54.7204
 21
72.9326
 31
0.0
  0
LINE
  8
0
 62
     0
 10
54.7204
 20
72.9326
 30
0.0
 11
54.7204
 21
73.9316
 31
0.0
  0
LINE
  8
0
 62
     0
 10
54.7204
 20
73.9316
 30
0.0
 11
40.7211
 21
73.9316
 31
0.0
  0
LINE
  8
0
 62
     0
 10
59.7711
 20
73.9316
 30
0.0
 11
59.7711
 21
72.9326
 31
0.0
  0
LINE
  8
0
 62
     0
 10
59.7711
 20
72.9326
 30
0.0
 11
58.9703
 21
72.9326
 31
0.0
  0
LINE
  8
0
 62
     0
 10
58.9703
 20
72.9326
 30
0.0
 11
58.9703
 21
69.832
 31
0.0
  0
LINE
  8
0
 62
     0
 10
58.9703
 20
69.832
 30
0.0
 11
59.7711
 21
69.832
 31
0.0
  0
LINE
  8
0
 62
     0
 10
59.7711
 20
69.832
 30
0.0
 11
59.7711
 21
64.032
 31
0.0
  0
LINE
  8
0
 62
     0
 10
59.7711
 20
64.032
 30
0.0
 11
58.9703
 21
64.032
 31
0.0
  0
LINE
  8
0
 62
     0
 10
58.9703
 20
64.032
 30
0.0
 11
58.9703
 21
60.9328
 31
0.0
  0
LINE
  8
0
 62
     0
 10
58.9703
 20
60.9328
 30
0.0
 11
59.7711
 21
60.9328
 31
0.0
  0
LINE
  8
0
 62
     0
 10
59.7711
 20
60.9328
 30
0.0
 11
59.7711
 21
59.9324
 31
0.0
  0
LINE
  8
0
 62
     0
 10
59.7711
 20
59.9324
 30
0.0
 11
73.7704
 21
59.9324
 31
0.0
  0
LINE
  8
0
 62
     0
 10
73.7704
 20
59.9324
 30
0.0
 11
73.7704
 21
60.9328
 31
0.0
  0
LINE
  8
0
 62
     0
 10
73.7704
 20
60.9328
 30
0.0
 11
74.5712
 21
60.9328
 31
0.0
  0
LINE
  8
0
 62
     0
 10
74.5712
 20
60.9328
 30
0.0
 11
74.5712
 21
64.032
 31
0.0
  0
LINE
  8
0
 62
     0
 10
74.5712
 20
64.032
 30
0.0
 11
73.7704
 21
64.032
 31
0.0
  0
LINE
  8
0
 62
     0
 10
73.7704
 20
64.032
 30
0.0
 11
73.7704
 21
69.832
 31
0.0
  0
LINE
  8
0
 62
     0
 10
73.7704
 20
69.832
 30
0.0
 11
74.5712
 21
69.832
 31
0.0
  0
LINE
  8
0
 62
     0
 10
74.5712
 20
69.832
 30
0.0
 11
74.5712
 21
72.9326
 31
0.0
  0
LINE
  8
0
 62
     0
 10
74.5712
 20
72.9326
 30
0.0
 11
73.7704
 21
72.9326
 31
0.0
  0
LINE
  8
0
 62
     0
 10
73.7704
 20
72.9326
 30
0.0
 11
73.7704
 21
73.9316
 31
0.0
  0
LINE
  8
0
 62
     0
 10
73.7704
 20
73.9316
 30
0.0
 11
59.7711
 21
73.9316
 31
0.0
  0
LINE
  8
0
 62
     0
 10
78.8211
 20
73.9316
 30
0.0
 11
78.8211
 21
72.9326
 31
0.0
  0
LINE
  8
0
 62
     0
 10
78.8211
 20
72.9326
 30
0.0
 11
78.0203
 21
72.9326
 31
0.0
  0
LINE
  8
0
 62
     0
 10
78.0203
 20
72.9326
 30
0.0
 11
78.0203
 21
69.832
 31
0.0
  0
LINE
  8
0
 62
     0
 10
78.0203
 20
69.832
 30
0.0
 11
78.8211
 21
69.832
 31
0.0
  0
LINE
  8
0
 62
     0
 10
78.8211
 20
69.832
 30
0.0
 11
78.8211
 21
64.032
 31
0.0
  0
LINE
  8
0
 62
     0
 10
78.8211
 20
64.032
 30
0.0
 11
78.0203
 21
64.032
 31
0.0
  0
LINE
  8
0
 62
     0
 10
78.0203
 20
64.032
 30
0.0
 11
78.0203
 21
60.9328
 31
0.0
  0
LINE
  8
0
 62
     0
 10
78.0203
 20
60.9328
 30
0.0
 11
78.8211
 21
60.9328
 31
0.0
  0
LINE
  8
0
 62
     0
 10
78.8211
 20
60.9328
 30
0.0
 11
78.8211
 21
59.9324
 31
0.0
  0
LINE
  8
0
 62
     0
 10
78.8211
 20
59.9324
 30
0.0
 11
92.8204
 21
59.9324
 31
0.0
  0
LINE
  8
0
 62
     0
 10
92.8204
 20
59.9324
 30
0.0
 11
92.8204
 21
60.9328
 31
0.0
  0
LINE
  8
0
 62
     0
 10
92.8204
 20
60.9328
 30
0.0
 11
93.6198
 21
60.9328
 31
0.0
  0
LINE
  8
0
 62
     0
 10
93.6198
 20
60.9328
 30
0.0
 11
93.6198
 21
64.032
 31
0.0
  0
LINE
  8
0
 62
     0
 10
93.6198
 20
64.032
 30
0.0
 11
92.8204
 21
64.032
 31
0.0
  0
LINE
  8
0
 62
     0
 10
92.8204
 20
64.032
 30
0.0
 11
92.8204
 21
69.832
 31
0.0
  0
LINE
  8
0
 62
     0
 10
92.8204
 20
69.832
 30
0.0
 11
93.6198
 21
69.832
 31
0.0
  0
LINE
  8
0
 62
     0
 10
93.6198
 20
69.832
 30
0.0
 11
93.6198
 21
72.9326
 31
0.0
  0
LINE
  8
0
 62
     0
 10
93.6198
 20
72.9326
 30
0.0
 11
92.8204
 21
72.9326
 31
0.0
  0
LINE
  8
0
 62
     0
 10
92.8204
 20
72.9326
 30
0.0
 11
92.8204
 21
73.9316
 31
0.0
  0
LINE
  8
0
 62
     0
 10
92.8204
 20
73.9316
 30
0.0
 11
78.8211
 21
73.9316
 31
0.0
  0
LINE
  8
0
 62
     0
 10
97.8697
 20
73.9316
 30
0.0
 11
97.8697
 21
72.9326
 31
0.0
  0
LINE
  8
0
 62
     0
 10
97.8697
 20
72.9326
 30
0.0
 11
97.0703
 21
72.9326
 31
0.0
  0
LINE
  8
0
 62
     0
 10
97.0703
 20
72.9326
 30
0.0
 11
97.0703
 21
69.832
 31
0.0
  0
LINE
  8
0
 62
     0
 10
97.0703
 20
69.832
 30
0.0
 11
97.8697
 21
69.832
 31
0.0
  0
LINE
  8
0
 62
     0
 10
97.8697
 20
69.832
 30
0.0
 11
97.8697
 21
64.032
 31
0.0
  0
LINE
  8
0
 62
     0
 10
97.8697
 20
64.032
 30
0.0
 11
97.0703
 21
64.032
 31
0.0
  0
LINE
  8
0
 62
     0
 10
97.0703
 20
64.032
 30
0.0
 11
97.0703
 21
60.9328
 31
0.0
  0
LINE
  8
0
 62
     0
 10
97.0703
 20
60.9328
 30
0.0
 11
97.8697
 21
60.9328
 31
0.0
  0
LINE
  8
0
 62
     0
 10
97.8697
 20
60.9328
 30
0.0
 11
97.8697
 21
59.9324
 31
0.0
  0
LINE
  8
0
 62
     0
 10
97.8697
 20
59.9324
 30
0.0
 11
111.869
 21
59.9324
 31
0.0
  0
LINE
  8
0
 62
     0
 10
111.869
 20
59.9324
 30
0.0
 11
111.869
 21
60.9328
 31
0.0
  0
LINE
  8
0
 62
     0
 10
111.869
 20
60.9328
 30
0.0
 11
112.67
 21
60.9328
 31
0.0
  0
LINE
  8
0
 62
     0
 10
112.67
 20
60.9328
 30
0.0
 11
112.67
 21
64.032
 31
0.0
  0
LINE
  8
0
 62
     0
 10
112.67
 20
64.032
 30
0.0
 11
111.869
 21
64.032
 31
0.0
  0
LINE
  8
0
 62
     0
 10
111.869
 20
64.032
 30
0.0
 11
111.869
 21
69.832
 31
0.0
  0
LINE
  8
0
 62
     0
 10
111.869
 20
69.832
 30
0.0
 11
112.67
 21
69.832
 31
0.0
  0
LINE
  8
0
 62
     0
 10
112.67
 20
69.832
 30
0.0
 11
112.67
 21
72.9326
 31
0.0
  0
LINE
  8
0
 62
     0
 10
112.67
 20
72.9326
 30
0.0
 11
111.869
 21
72.9326
 31
0.0
  0
LINE
  8
0
 62
     0
 10
111.869
 20
72.9326
 30
0.0
 11
111.869
 21
73.9316
 31
0.0
  0
LINE
  8
0
 62
     0
 10
111.869
 20
73.9316
 30
0.0
 11
97.8697
 21
73.9316
 31
0.0
  0
LINE
  8
0
 62
     0
 10
116.92
 20
73.9316
 30
0.0
 11
116.92
 21
72.9326
 31
0.0
  0
LINE
  8
0
 62
     0
 10
116.92
 20
72.9326
 30
0.0
 11
116.119
 21
72.9326
 31
0.0
  0
LINE
  8
0
 62
     0
 10
116.119
 20
72.9326
 30
0.0
 11
116.119
 21
69.832
 31
0.0
  0
LINE
  8
0
 62
     0
 10
116.119
 20
69.832
 30
0.0
 11
116.92
 21
69.832
 31
0.0
  0
LINE
  8
0
 62
     0
 10
116.92
 20
69.832
 30
0.0
 11
116.92
 21
64.032
 31
0.0
  0
LINE
  8
0
 62
     0
 10
116.92
 20
64.032
 30
0.0
 11
116.119
 21
64.032
 31
0.0
  0
LINE
  8
0
 62
     0
 10
116.119
 20
64.032
 30
0.0
 11
116.119
 21
60.9328
 31
0.0
  0
LINE
  8
0
 62
     0
 10
116.119
 20
60.9328
 30
0.0
 11
116.92
 21
60.9328
 31
0.0
  0
LINE
  8
0
 62
     0
 10
116.92
 20
60.9328
 30
0.0
 11
116.92
 21
59.9324
 31
0.0
  0
LINE
  8
0
 62
     0
 10
116.92
 20
59.9324
 30
0.0
 11
130.92
 21
59.9324
 31
0.0
  0
LINE
  8
0
 62
     0
 10
130.92
 20
59.9324
 30
0.0
 11
130.92
 21
60.9328
 31
0.0
  0
LINE
  8
0
 62
     0
 10
130.92
 20
60.9328
 30
0.0
 11
131.721
 21
60.9328
 31
0.0
  0
LINE
  8
0
 62
     0
 10
131.721
 20
60.9328
 30
0.0
 11
131.721
 21
64.032
 31
0.0
  0
LINE
  8
0
 62
     0
 10
131.721
 20
64.032
 30
0.0
 11
130.92
 21
64.032
 31
0.0
  0
LINE
  8
0
 62
     0
 10
130.92
 20
64.032
 30
0.0
 11
130.92
 21
69.832
 31
0.0
  0
LINE
  8
0
 62
     0
 10
130.92
 20
69.832
 30
0.0
 11
131.721
 21
69.832
 31
0.0
  0
LINE
  8
0
 62
     0
 10
131.721
 20
69.832
 30
0.0
 11
131.721
 21
72.9326
 31
0.0
  0
LINE
  8
0
 62
     0
 10
131.721
 20
72.9326
 30
0.0
 11
130.92
 21
72.9326
 31
0.0
  0
LINE
  8
0
 62
     0
 10
130.92
 20
72.9326
 30
0.0
 11
130.92
 21
73.9316
 31
0.0
  0
LINE
  8
0
 62
     0
 10
130.92
 20
73.9316
 30
0.0
 11
116.92
 21
73.9316
 31
0.0
  0
LINE
  8
0
 62
     0
 10
135.971
 20
73.9316
 30
0.0
 11
135.971
 21
72.9326
 31
0.0
  0
LINE
  8
0
 62
     0
 10
135.971
 20
72.9326
 30
0.0
 11
135.17
 21
72.9326
 31
0.0
  0
LINE
  8
0
 62
     0
 10
135.17
 20
72.9326
 30
0.0
 11
135.17
 21
69.832
 31
0.0
  0
LINE
  8
0
 62
     0
 10
135.17
 20
69.832
 30
0.0
 11
135.971
 21
69.832
 31
0.0
  0
LINE
  8
0
 62
     0
 10
135.971
 20
69.832
 30
0.0
 11
135.971
 21
64.032
 31
0.0
  0
LINE
  8
0
 62
     0
 10
135.971
 20
64.032
 30
0.0
 11
135.17
 21
64.032
 31
0.0
  0
LINE
  8
0
 62
     0
 10
135.17
 20
64.032
 30
0.0
 11
135.17
 21
60.9328
 31
0.0
  0
LINE
  8
0
 62
     0
 10
135.17
 20
60.9328
 30
0.0
 11
135.971
 21
60.9328
 31
0.0
  0
LINE
  8
0
 62
     0
 10
135.971
 20
60.9328
 30
0.0
 11
135.971
 21
59.9324
 31
0.0
  0
LINE
  8
0
 62
     0
 10
135.971
 20
59.9324
 30
0.0
 11
149.97
 21
59.9324
 31
0.0
  0
LINE
  8
0
 62
     0
 10
149.97
 20
59.9324
 30
0.0
 11
149.97
 21
60.9328
 31
0.0
  0
LINE
  8
0
 62
     0
 10
149.97
 20
60.9328
 30
0.0
 11
150.771
 21
60.9328
 31
0.0
  0
LINE
  8
0
 62
     0
 10
150.771
 20
60.9328
 30
0.0
 11
150.771
 21
64.032
 31
0.0
  0
LINE
  8
0
 62
     0
 10
150.771
 20
64.032
 30
0.0
 11
149.97
 21
64.032
 31
0.0
  0
LINE
  8
0
 62
     0
 10
149.97
 20
64.032
 30
0.0
 11
149.97
 21
69.832
 31
0.0
  0
LINE
  8
0
 62
     0
 10
149.97
 20
69.832
 30
0.0
 11
150.771
 21
69.832
 31
0.0
  0
LINE
  8
0
 62
     0
 10
150.771
 20
69.832
 30
0.0
 11
150.771
 21
72.9326
 31
0.0
  0
LINE
  8
0
 62
     0
 10
150.771
 20
72.9326
 30
0.0
 11
149.97
 21
72.9326
 31
0.0
  0
LINE
  8
0
 62
     0
 10
149.97
 20
72.9326
 30
0.0
 11
149.97
 21
73.9316
 31
0.0
  0
LINE
  8
0
 62
     0
 10
149.97
 20
73.9316
 30
0.0
 11
135.971
 21
73.9316
 31
0.0
  0
LINE
  8
0
 62
     0
 10
21.671
 20
92.9816
 30
0.0
 11
21.671
 21
91.9826
 31
0.0
  0
LINE
  8
0
 62
     0
 10
21.671
 20
91.9826
 30
0.0
 11
20.8704
 21
91.9826
 31
0.0
  0
LINE
  8
0
 62
     0
 10
20.8704
 20
91.9826
 30
0.0
 11
20.8704
 21
88.882
 31
0.0
  0
LINE
  8
0
 62
     0
 10
20.8704
 20
88.882
 30
0.0
 11
21.671
 21
88.882
 31
0.0
  0
LINE
  8
0
 62
     0
 10
21.671
 20
88.882
 30
0.0
 11
21.671
 21
83.082
 31
0.0
  0
LINE
  8
0
 62
     0
 10
21.671
 20
83.082
 30
0.0
 11
20.8704
 21
83.082
 31
0.0
  0
LINE
  8
0
 62
     0
 10
20.8704
 20
83.082
 30
0.0
 11
20.8704
 21
79.9828
 31
0.0
  0
LINE
  8
0
 62
     0
 10
20.8704
 20
79.9828
 30
0.0
 11
21.671
 21
79.9828
 31
0.0
  0
LINE
  8
0
 62
     0
 10
21.671
 20
79.9828
 30
0.0
 11
21.671
 21
78.9824
 31
0.0
  0
LINE
  8
0
 62
     0
 10
21.671
 20
78.9824
 30
0.0
 11
35.6704
 21
78.9824
 31
0.0
  0
LINE
  8
0
 62
     0
 10
35.6704
 20
78.9824
 30
0.0
 11
35.6704
 21
79.9828
 31
0.0
  0
LINE
  8
0
 62
     0
 10
35.6704
 20
79.9828
 30
0.0
 11
36.4712
 21
79.9828
 31
0.0
  0
LINE
  8
0
 62
     0
 10
36.4712
 20
79.9828
 30
0.0
 11
36.4712
 21
83.082
 31
0.0
  0
LINE
  8
0
 62
     0
 10
36.4712
 20
83.082
 30
0.0
 11
35.6704
 21
83.082
 31
0.0
  0
LINE
  8
0
 62
     0
 10
35.6704
 20
83.082
 30
0.0
 11
35.6704
 21
88.882
 31
0.0
  0
LINE
  8
0
 62
     0
 10
35.6704
 20
88.882
 30
0.0
 11
36.4712
 21
88.882
 31
0.0
  0
LINE
  8
0
 62
     0
 10
36.4712
 20
88.882
 30
0.0
 11
36.4712
 21
91.9826
 31
0.0
  0
LINE
  8
0
 62
     0
 10
36.4712
 20
91.9826
 30
0.0
 11
35.6704
 21
91.9826
 31
0.0
  0
LINE
  8
0
 62
     0
 10
35.6704
 20
91.9826
 30
0.0
 11
35.6704
 21
92.9816
 31
0.0
  0
LINE
  8
0
 62
     0
 10
35.6704
 20
92.9816
 30
0.0
 11
21.671
 21
92.9816
 31
0.0
  0
LINE
  8
0
 62
     0
 10
40.7211
 20
92.9816
 30
0.0
 11
40.7211
 21
91.9826
 31
0.0
  0
LINE
  8
0
 62
     0
 10
40.7211
 20
91.9826
 30
0.0
 11
39.9203
 21
91.9826
 31
0.0
  0
LINE
  8
0
 62
     0
 10
39.9203
 20
91.9826
 30
0.0
 11
39.9203
 21
88.882
 31
0.0
  0
LINE
  8
0
 62
     0
 10
39.9203
 20
88.882
 30
0.0
 11
40.7211
 21
88.882
 31
0.0
  0
LINE
  8
0
 62
     0
 10
40.7211
 20
88.882
 30
0.0
 11
40.7211
 21
83.082
 31
0.0
  0
LINE
  8
0
 62
     0
 10
40.7211
 20
83.082
 30
0.0
 11
39.9203
 21
83.082
 31
0.0
  0
LINE
  8
0
 62
     0
 10
39.9203
 20
83.082
 30
0.0
 11
39.9203
 21
79.9828
 31
0.0
  0
LINE
  8
0
 62
     0
 10
39.9203
 20
79.9828
 30
0.0
 11
40.7211
 21
79.9828
 31
0.0
  0
LINE
  8
0
 62
     0
 10
40.7211
 20
79.9828
 30
0.0
 11
40.7211
 21
78.9824
 31
0.0
  0
LINE
  8
0
 62
     0
 10
40.7211
 20
78.9824
 30
0.0
 11
54.7204
 21
78.9824
 31
0.0
  0
LINE
  8
0
 62
     0
 10
54.7204
 20
78.9824
 30
0.0
 11
54.7204
 21
79.9828
 31
0.0
  0
LINE
  8
0
 62
     0
 10
54.7204
 20
79.9828
 30
0.0
 11
55.5212
 21
79.9828
 31
0.0
  0
LINE
  8
0
 62
     0
 10
55.5212
 20
79.9828
 30
0.0
 11
55.5212
 21
83.082
 31
0.0
  0
LINE
  8
0
 62
     0
 10
55.5212
 20
83.082
 30
0.0
 11
54.7204
 21
83.082
 31
0.0
  0
LINE
  8
0
 62
     0
 10
54.7204
 20
83.082
 30
0.0
 11
54.7204
 21
88.882
 31
0.0
  0
LINE
  8
0
 62
     0
 10
54.7204
 20
88.882
 30
0.0
 11
55.5212
 21
88.882
 31
0.0
  0
LINE
  8
0
 62
     0
 10
55.5212
 20
88.882
 30
0.0
 11
55.5212
 21
91.9826
 31
0.0
  0
LINE
  8
0
 62
     0
 10
55.5212
 20
91.9826
 30
0.0
 11
54.7204
 21
91.9826
 31
0.0
  0
LINE
  8
0
 62
     0
 10
54.7204
 20
91.9826
 30
0.0
 11
54.7204
 21
92.9816
 31
0.0
  0
LINE
  8
0
 62
     0
 10
54.7204
 20
92.9816
 30
0.0
 11
40.7211
 21
92.9816
 31
0.0
  0
LINE
  8
0
 62
     0
 10
59.7711
 20
92.9816
 30
0.0
 11
59.7711
 21
91.9826
 31
0.0
  0
LINE
  8
0
 62
     0
 10
59.7711
 20
91.9826
 30
0.0
 11
58.9703
 21
91.9826
 31
0.0
  0
LINE
  8
0
 62
     0
 10
58.9703
 20
91.9826
 30
0.0
 11
58.9703
 21
88.882
 31
0.0
  0
LINE
  8
0
 62
     0
 10
58.9703
 20
88.882
 30
0.0
 11
59.7711
 21
88.882
 31
0.0
  0
LINE
  8
0
 62
     0
 10
59.7711
 20
88.882
 30
0.0
 11
59.7711
 21
83.082
 31
0.0
  0
LINE
  8
0
 62
     0
 10
59.7711
 20
83.082
 30
0.0
 11
58.9703
 21
83.082
 31
0.0
  0
LINE
  8
0
 62
     0
 10
58.9703
 20
83.082
 30
0.0
 11
58.9703
 21
79.9828
 31
0.0
  0
LINE
  8
0
 62
     0
 10
58.9703
 20
79.9828
 30
0.0
 11
59.7711
 21
79.9828
 31
0.0
  0
LINE
  8
0
 62
     0
 10
59.7711
 20
79.9828
 30
0.0
 11
59.7711
 21
78.9824
 31
0.0
  0
LINE
  8
0
 62
     0
 10
59.7711
 20
78.9824
 30
0.0
 11
73.7704
 21
78.9824
 31
0.0
  0
LINE
  8
0
 62
     0
 10
73.7704
 20
78.9824
 30
0.0
 11
73.7704
 21
79.9828
 31
0.0
  0
LINE
  8
0
 62
     0
 10
73.7704
 20
79.9828
 30
0.0
 11
74.5712
 21
79.9828
 31
0.0
  0
LINE
  8
0
 62
     0
 10
74.5712
 20
79.9828
 30
0.0
 11
74.5712
 21
83.082
 31
0.0
  0
LINE
  8
0
 62
     0
 10
74.5712
 20
83.082
 30
0.0
 11
73.7704
 21
83.082
 31
0.0
  0
LINE
  8
0
 62
     0
 10
73.7704
 20
83.082
 30
0.0
 11
73.7704
 21
88.882
 31
0.0
  0
LINE
  8
0
 62
     0
 10
73.7704
 20
88.882
 30
0.0
 11
74.5712
 21
88.882
 31
0.0
  0
LINE
  8
0
 62
     0
 10
74.5712
 20
88.882
 30
0.0
 11
74.5712
 21
91.9826
 31
0.0
  0
LINE
  8
0
 62
     0
 10
74.5712
 20
91.9826
 30
0.0
 11
73.7704
 21
91.9826
 31
0.0
  0
LINE
  8
0
 62
     0
 10
73.7704
 20
91.9826
 30
0.0
 11
73.7704
 21
92.9816
 31
0.0
  0
LINE
  8
0
 62
     0
 10
73.7704
 20
92.9816
 30
0.0
 11
59.7711
 21
92.9816
 31
0.0
  0
LINE
  8
0
 62
     0
 10
78.8211
 20
92.9816
 30
0.0
 11
78.8211
 21
91.9826
 31
0.0
  0
LINE
  8
0
 62
     0
 10
78.8211
 20
91.9826
 30
0.0
 11
78.0203
 21
91.9826
 31
0.0
  0
LINE
  8
0
 62
     0
 10
78.0203
 20
91.9826
 30
0.0
 11
78.0203
 21
88.882
 31
0.0
  0
LINE
  8
0
 62
     0
 10
78.0203
 20
88.882
 30
0.0
 11
78.8211
 21
88.882
 31
0.0
  0
LINE
  8
0
 62
     0
 10
78.8211
 20
88.882
 30
0.0
 11
78.8211
 21
83.082
 31
0.0
  0
LINE
  8
0
 62
     0
 10
78.8211
 20
83.082
 30
0.0
 11
78.0203
 21
83.082
 31
0.0
  0
LINE
  8
0
 62
     0
 10
78.0203
 20
83.082
 30
0.0
 11
78.0203
 21
79.9828
 31
0.0
  0
LINE
  8
0
 62
     0
 10
78.0203
 20
79.9828
 30
0.0
 11
78.8211
 21
79.9828
 31
0.0
  0
LINE
  8
0
 62
     0
 10
78.8211
 20
79.9828
 30
0.0
 11
78.8211
 21
78.9824
 31
0.0
  0
LINE
  8
0
 62
     0
 10
78.8211
 20
78.9824
 30
0.0
 11
92.8204
 21
78.9824
 31
0.0
  0
LINE
  8
0
 62
     0
 10
92.8204
 20
78.9824
 30
0.0
 11
92.8204
 21
79.9828
 31
0.0
  0
LINE
  8
0
 62
     0
 10
92.8204
 20
79.9828
 30
0.0
 11
93.6198
 21
79.9828
 31
0.0
  0
LINE
  8
0
 62
     0
 10
93.6198
 20
79.9828
 30
0.0
 11
93.6198
 21
83.082
 31
0.0
  0
LINE
  8
0
 62
     0
 10
93.6198
 20
83.082
 30
0.0
 11
92.8204
 21
83.082
 31
0.0
  0
LINE
  8
0
 62
     0
 10
92.8204
 20
83.082
 30
0.0
 11
92.8204
 21
88.882
 31
0.0
  0
LINE
  8
0
 62
     0
 10
92.8204
 20
88.882
 30
0.0
 11
93.6198
 21
88.882
 31
0.0
  0
LINE
  8
0
 62
     0
 10
93.6198
 20
88.882
 30
0.0
 11
93.6198
 21
91.9826
 31
0.0
  0
LINE
  8
0
 62
     0
 10
93.6198
 20
91.9826
 30
0.0
 11
92.8204
 21
91.9826
 31
0.0
  0
LINE
  8
0
 62
     0
 10
92.8204
 20
91.9826
 30
0.0
 11
92.8204
 21
92.9816
 31
0.0
  0
LINE
  8
0
 62
     0
 10
92.8204
 20
92.9816
 30
0.0
 11
78.8211
 21
92.9816
 31
0.0
  0
LINE
  8
0
 62
     0
 10
97.8697
 20
92.9816
 30
0.0
 11
97.8697
 21
91.9826
 31
0.0
  0
LINE
  8
0
 62
     0
 10
97.8697
 20
91.9826
 30
0.0
 11
97.0703
 21
91.9826
 31
0.0
  0
LINE
  8
0
 62
     0
 10
97.0703
 20
91.9826
 30
0.0
 11
97.0703
 21
88.882
 31
0.0
  0
LINE
  8
0
 62
     0
 10
97.0703
 20
88.882
 30
0.0
 11
97.8697
 21
88.882
 31
0.0
  0
LINE
  8
0
 62
     0
 10
97.8697
 20
88.882
 30
0.0
 11
97.8697
 21
83.082
 31
0.0
  0
LINE
  8
0
 62
     0
 10
97.8697
 20
83.082
 30
0.0
 11
97.0703
 21
83.082
 31
0.0
  0
LINE
  8
0
 62
     0
 10
97.0703
 20
83.082
 30
0.0
 11
97.0703
 21
79.9828
 31
0.0
  0
LINE
  8
0
 62
     0
 10
97.0703
 20
79.9828
 30
0.0
 11
97.8697
 21
79.9828
 31
0.0
  0
LINE
  8
0
 62
     0
 10
97.8697
 20
79.9828
 30
0.0
 11
97.8697
 21
78.9824
 31
0.0
  0
LINE
  8
0
 62
     0
 10
97.8697
 20
78.9824
 30
0.0
 11
111.869
 21
78.9824
 31
0.0
  0
LINE
  8
0
 62
     0
 10
111.869
 20
78.9824
 30
0.0
 11
111.869
 21
79.9828
 31
0.0
  0
LINE
  8
0
 62
     0
 10
111.869
 20
79.9828
 30
0.0
 11
112.67
 21
79.9828
 31
0.0
  0
LINE
  8
0
 62
     0
 10
112.67
 20
79.9828
 30
0.0
 11
112.67
 21
83.082
 31
0.0
  0
LINE
  8
0
 62
     0
 10
112.67
 20
83.082
 30
0.0
 11
111.869
 21
83.082
 31
0.0
  0
LINE
  8
0
 62
     0
 10
111.869
 20
83.082
 30
0.0
 11
111.869
 21
88.882
 31
0.0
  0
LINE
  8
0
 62
     0
 10
111.869
 20
88.882
 30
0.0
 11
112.67
 21
88.882
 31
0.0
  0
LINE
  8
0
 62
     0
 10
112.67
 20
88.882
 30
0.0
 11
112.67
 21
91.9826
 31
0.0
  0
LINE
  8
0
 62
     0
 10
112.67
 20
91.9826
 30
0.0
 11
111.869
 21
91.9826
 31
0.0
  0
LINE
  8
0
 62
     0
 10
111.869
 20
91.9826
 30
0.0
 11
111.869
 21
92.9816
 31
0.0
  0
LINE
  8
0
 62
     0
 10
111.869
 20
92.9816
 30
0.0
 11
97.8697
 21
92.9816
 31
0.0
  0
LINE
  8
0
 62
     0
 10
116.92
 20
92.9816
 30
0.0
 11
116.92
 21
91.9826
 31
0.0
  0
LINE
  8
0
 62
     0
 10
116.92
 20
91.9826
 30
0.0
 11
116.119
 21
91.9826
 31
0.0
  0
LINE
  8
0
 62
     0
 10
116.119
 20
91.9826
 30
0.0
 11
116.119
 21
88.882
 31
0.0
  0
LINE
  8
0
 62
     0
 10
116.119
 20
88.882
 30
0.0
 11
116.92
 21
88.882
 31
0.0
  0
LINE
  8
0
 62
     0
 10
116.92
 20
88.882
 30
0.0
 11
116.92
 21
83.082
 31
0.0
  0
LINE
  8
0
 62
     0
 10
116.92
 20
83.082
 30
0.0
 11
116.119
 21
83.082
 31
0.0
  0
LINE
  8
0
 62
     0
 10
116.119
 20
83.082
 30
0.0
 11
116.119
 21
79.9828
 31
0.0
  0
LINE
  8
0
 62
     0
 10
116.119
 20
79.9828
 30
0.0
 11
116.92
 21
79.9828
 31
0.0
  0
LINE
  8
0
 62
     0
 10
116.92
 20
79.9828
 30
0.0
 11
116.92
 21
78.9824
 31
0.0
  0
LINE
  8
0
 62
     0
 10
116.92
 20
78.9824
 30
0.0
 11
130.92
 21
78.9824
 31
0.0
  0
LINE
  8
0
 62
     0
 10
130.92
 20
78.9824
 30
0.0
 11
130.92
 21
79.9828
 31
0.0
  0
LINE
  8
0
 62
     0
 10
130.92
 20
79.9828
 30
0.0
 11
131.721
 21
79.9828
 31
0.0
  0
LINE
  8
0
 62
     0
 10
131.721
 20
79.9828
 30
0.0
 11
131.721
 21
83.082
 31
0.0
  0
LINE
  8
0
 62
     0
 10
131.721
 20
83.082
 30
0.0
 11
130.92
 21
83.082
 31
0.0
  0
LINE
  8
0
 62
     0
 10
130.92
 20
83.082
 30
0.0
 11
130.92
 21
88.882
 31
0.0
  0
LINE
  8
0
 62
     0
 10
130.92
 20
88.882
 30
0.0
 11
131.721
 21
88.882
 31
0.0
  0
LINE
  8
0
 62
     0
 10
131.721
 20
88.882
 30
0.0
 11
131.721
 21
91.9826
 31
0.0
  0
LINE
  8
0
 62
     0
 10
131.721
 20
91.9826
 30
0.0
 11
130.92
 21
91.9826
 31
0.0
  0
LINE
  8
0
 62
     0
 10
130.92
 20
91.9826
 30
0.0
 11
130.92
 21
92.9816
 31
0.0
  0
LINE
  8
0
 62
     0
 10
130.92
 20
92.9816
 30
0.0
 11
116.92
 21
92.9816
 31
0.0
  0
ENDSEC
  0
EOF
